<mxfile host="app.diagrams.net" modified="2023-05-30T07:49:58.958Z" agent="Mozilla/5.0 (Windows NT 10.0; Win64; x64) AppleWebKit/537.36 (KHTML, like Gecko) Chrome/113.0.0.0 Safari/537.36" etag="NqSmR1XqcTqGE3_jOR_Y" version="21.3.5" type="google" pages="6">
  <diagram name="Main" id="PjjdQhJnc-u67xA29sAF">
    <mxGraphModel grid="1" page="1" gridSize="10" guides="1" tooltips="1" connect="1" arrows="1" fold="1" pageScale="1" pageWidth="850" pageHeight="1100" math="0" shadow="0">
      <root>
        <mxCell id="aXXytz8-QFqxuCheHmFr-0" />
        <mxCell id="aXXytz8-QFqxuCheHmFr-1" parent="aXXytz8-QFqxuCheHmFr-0" />
        <mxCell id="aXXytz8-QFqxuCheHmFr-2" value="User" style="shape=umlActor;verticalLabelPosition=bottom;verticalAlign=top;html=1;outlineConnect=0;" vertex="1" parent="aXXytz8-QFqxuCheHmFr-1">
          <mxGeometry x="10" y="720" width="30" height="60" as="geometry" />
        </mxCell>
        <mxCell id="aXXytz8-QFqxuCheHmFr-3" value="Admin" style="shape=umlActor;verticalLabelPosition=bottom;verticalAlign=top;html=1;outlineConnect=0;" vertex="1" parent="aXXytz8-QFqxuCheHmFr-1">
          <mxGeometry x="40" y="400" width="30" height="60" as="geometry" />
        </mxCell>
        <mxCell id="aXXytz8-QFqxuCheHmFr-4" value="LogIn" style="ellipse;whiteSpace=wrap;html=1;" vertex="1" parent="aXXytz8-QFqxuCheHmFr-1">
          <mxGeometry x="200" y="410" width="80" height="40" as="geometry" />
        </mxCell>
        <mxCell id="aXXytz8-QFqxuCheHmFr-5" value="" style="endArrow=none;html=1;rounded=0;" edge="1" parent="aXXytz8-QFqxuCheHmFr-1" source="aXXytz8-QFqxuCheHmFr-3" target="aXXytz8-QFqxuCheHmFr-4">
          <mxGeometry width="50" height="50" relative="1" as="geometry">
            <mxPoint x="400" y="610" as="sourcePoint" />
            <mxPoint x="450" y="560" as="targetPoint" />
          </mxGeometry>
        </mxCell>
        <mxCell id="aXXytz8-QFqxuCheHmFr-7" value="View public destinations" style="ellipse;whiteSpace=wrap;html=1;" vertex="1" parent="aXXytz8-QFqxuCheHmFr-1">
          <mxGeometry x="300" y="290" width="100" height="60" as="geometry" />
        </mxCell>
        <mxCell id="aXXytz8-QFqxuCheHmFr-8" value="LogIn" style="ellipse;whiteSpace=wrap;html=1;" vertex="1" parent="aXXytz8-QFqxuCheHmFr-1">
          <mxGeometry x="310" y="720" width="80" height="40" as="geometry" />
        </mxCell>
        <mxCell id="aXXytz8-QFqxuCheHmFr-9" value="Register" style="ellipse;whiteSpace=wrap;html=1;" vertex="1" parent="aXXytz8-QFqxuCheHmFr-1">
          <mxGeometry x="170" y="610" width="80" height="40" as="geometry" />
        </mxCell>
        <mxCell id="aXXytz8-QFqxuCheHmFr-10" value="" style="endArrow=none;html=1;rounded=0;" edge="1" parent="aXXytz8-QFqxuCheHmFr-1" source="aXXytz8-QFqxuCheHmFr-2" target="aXXytz8-QFqxuCheHmFr-11">
          <mxGeometry width="50" height="50" relative="1" as="geometry">
            <mxPoint x="90" y="800" as="sourcePoint" />
            <mxPoint x="170" y="740" as="targetPoint" />
          </mxGeometry>
        </mxCell>
        <mxCell id="aXXytz8-QFqxuCheHmFr-11" value="Access account" style="ellipse;whiteSpace=wrap;html=1;" vertex="1" parent="aXXytz8-QFqxuCheHmFr-1">
          <mxGeometry x="150" y="730" width="80" height="40" as="geometry" />
        </mxCell>
        <mxCell id="aXXytz8-QFqxuCheHmFr-12" value="Delete public destination" style="ellipse;whiteSpace=wrap;html=1;" vertex="1" parent="aXXytz8-QFqxuCheHmFr-1">
          <mxGeometry x="520" y="330" width="100" height="60" as="geometry" />
        </mxCell>
        <mxCell id="aXXytz8-QFqxuCheHmFr-13" value="Create public destination" style="ellipse;whiteSpace=wrap;html=1;" vertex="1" parent="aXXytz8-QFqxuCheHmFr-1">
          <mxGeometry x="530" y="200" width="100" height="60" as="geometry" />
        </mxCell>
        <mxCell id="aXXytz8-QFqxuCheHmFr-14" value="" style="rounded=0;whiteSpace=wrap;html=1;rotation=90;" vertex="1" parent="aXXytz8-QFqxuCheHmFr-1">
          <mxGeometry x="1060" y="560" width="120" height="60" as="geometry" />
        </mxCell>
        <mxCell id="aXXytz8-QFqxuCheHmFr-15" value="Server" style="text;html=1;align=center;verticalAlign=middle;resizable=0;points=[];autosize=1;strokeColor=none;fillColor=none;" vertex="1" parent="aXXytz8-QFqxuCheHmFr-1">
          <mxGeometry x="1092" y="490" width="60" height="30" as="geometry" />
        </mxCell>
        <mxCell id="aXXytz8-QFqxuCheHmFr-16" value="" style="rounded=0;whiteSpace=wrap;html=1;" vertex="1" parent="aXXytz8-QFqxuCheHmFr-1">
          <mxGeometry x="1110" y="540" width="20" height="20" as="geometry" />
        </mxCell>
        <mxCell id="aXXytz8-QFqxuCheHmFr-17" value="Includes&lt;br&gt;" style="endArrow=open;endSize=12;dashed=1;html=1;rounded=0;" edge="1" parent="aXXytz8-QFqxuCheHmFr-1" source="aXXytz8-QFqxuCheHmFr-8" target="aXXytz8-QFqxuCheHmFr-11">
          <mxGeometry width="160" relative="1" as="geometry">
            <mxPoint x="340" y="750" as="sourcePoint" />
            <mxPoint x="500" y="750" as="targetPoint" />
          </mxGeometry>
        </mxCell>
        <mxCell id="aXXytz8-QFqxuCheHmFr-18" value="Includes" style="endArrow=open;endSize=12;dashed=1;html=1;rounded=0;" edge="1" parent="aXXytz8-QFqxuCheHmFr-1" source="aXXytz8-QFqxuCheHmFr-9" target="aXXytz8-QFqxuCheHmFr-11">
          <mxGeometry width="160" relative="1" as="geometry">
            <mxPoint x="350" y="760" as="sourcePoint" />
            <mxPoint x="243" y="798" as="targetPoint" />
          </mxGeometry>
        </mxCell>
        <mxCell id="aXXytz8-QFqxuCheHmFr-19" value="Includes" style="endArrow=open;endSize=12;dashed=1;html=1;rounded=0;" edge="1" parent="aXXytz8-QFqxuCheHmFr-1" source="aXXytz8-QFqxuCheHmFr-7" target="aXXytz8-QFqxuCheHmFr-4">
          <mxGeometry x="0.0016" width="160" relative="1" as="geometry">
            <mxPoint x="355" y="511" as="sourcePoint" />
            <mxPoint x="260" y="460" as="targetPoint" />
            <mxPoint as="offset" />
          </mxGeometry>
        </mxCell>
        <mxCell id="aXXytz8-QFqxuCheHmFr-20" value="Delete account" style="ellipse;whiteSpace=wrap;html=1;" vertex="1" parent="aXXytz8-QFqxuCheHmFr-1">
          <mxGeometry x="480" y="620" width="80" height="40" as="geometry" />
        </mxCell>
        <mxCell id="aXXytz8-QFqxuCheHmFr-21" value="Update account" style="ellipse;whiteSpace=wrap;html=1;" vertex="1" parent="aXXytz8-QFqxuCheHmFr-1">
          <mxGeometry x="520" y="690" width="80" height="40" as="geometry" />
        </mxCell>
        <mxCell id="aXXytz8-QFqxuCheHmFr-22" value="Extends" style="endArrow=open;endSize=12;dashed=1;html=1;rounded=0;" edge="1" parent="aXXytz8-QFqxuCheHmFr-1" source="aXXytz8-QFqxuCheHmFr-12" target="aXXytz8-QFqxuCheHmFr-7">
          <mxGeometry x="0.0016" width="160" relative="1" as="geometry">
            <mxPoint x="520" y="350" as="sourcePoint" />
            <mxPoint x="288" y="436" as="targetPoint" />
            <mxPoint as="offset" />
          </mxGeometry>
        </mxCell>
        <mxCell id="aXXytz8-QFqxuCheHmFr-23" value="Extends" style="endArrow=open;endSize=12;dashed=1;html=1;rounded=0;" edge="1" parent="aXXytz8-QFqxuCheHmFr-1" source="aXXytz8-QFqxuCheHmFr-13" target="aXXytz8-QFqxuCheHmFr-7">
          <mxGeometry x="0.0016" width="160" relative="1" as="geometry">
            <mxPoint x="365" y="361" as="sourcePoint" />
            <mxPoint x="298" y="446" as="targetPoint" />
            <mxPoint as="offset" />
          </mxGeometry>
        </mxCell>
        <mxCell id="aXXytz8-QFqxuCheHmFr-24" value="Extends" style="endArrow=open;endSize=12;dashed=1;html=1;rounded=0;" edge="1" parent="aXXytz8-QFqxuCheHmFr-1" source="aXXytz8-QFqxuCheHmFr-20" target="aXXytz8-QFqxuCheHmFr-8">
          <mxGeometry width="160" relative="1" as="geometry">
            <mxPoint x="435" y="690" as="sourcePoint" />
            <mxPoint x="337" y="713" as="targetPoint" />
          </mxGeometry>
        </mxCell>
        <mxCell id="aXXytz8-QFqxuCheHmFr-25" value="Extends" style="endArrow=open;endSize=12;dashed=1;html=1;rounded=0;" edge="1" parent="aXXytz8-QFqxuCheHmFr-1" source="aXXytz8-QFqxuCheHmFr-21" target="aXXytz8-QFqxuCheHmFr-8">
          <mxGeometry width="160" relative="1" as="geometry">
            <mxPoint x="420" y="820" as="sourcePoint" />
            <mxPoint x="256" y="811" as="targetPoint" />
          </mxGeometry>
        </mxCell>
        <mxCell id="aXXytz8-QFqxuCheHmFr-26" value="View bucket lists" style="ellipse;whiteSpace=wrap;html=1;" vertex="1" parent="aXXytz8-QFqxuCheHmFr-1">
          <mxGeometry x="260" y="800" width="96" height="60" as="geometry" />
        </mxCell>
        <mxCell id="aXXytz8-QFqxuCheHmFr-27" value="Includes" style="endArrow=open;endSize=12;dashed=1;html=1;rounded=0;" edge="1" parent="aXXytz8-QFqxuCheHmFr-1" source="aXXytz8-QFqxuCheHmFr-26" target="aXXytz8-QFqxuCheHmFr-8">
          <mxGeometry width="160" relative="1" as="geometry">
            <mxPoint x="360" y="620" as="sourcePoint" />
            <mxPoint x="520" y="620" as="targetPoint" />
          </mxGeometry>
        </mxCell>
        <mxCell id="aXXytz8-QFqxuCheHmFr-29" value="Create new bucket list" style="ellipse;whiteSpace=wrap;html=1;" vertex="1" parent="aXXytz8-QFqxuCheHmFr-1">
          <mxGeometry x="232" y="965" width="85" height="50" as="geometry" />
        </mxCell>
        <mxCell id="aXXytz8-QFqxuCheHmFr-30" value="Delete bucket list" style="ellipse;whiteSpace=wrap;html=1;" vertex="1" parent="aXXytz8-QFqxuCheHmFr-1">
          <mxGeometry x="380" y="910" width="90" height="50" as="geometry" />
        </mxCell>
        <mxCell id="aXXytz8-QFqxuCheHmFr-33" value="Extends" style="endArrow=open;endSize=12;dashed=1;html=1;rounded=0;" edge="1" parent="aXXytz8-QFqxuCheHmFr-1" source="aXXytz8-QFqxuCheHmFr-29" target="aXXytz8-QFqxuCheHmFr-26">
          <mxGeometry width="160" relative="1" as="geometry">
            <mxPoint x="502" y="908" as="sourcePoint" />
            <mxPoint x="250" y="910" as="targetPoint" />
          </mxGeometry>
        </mxCell>
        <mxCell id="aXXytz8-QFqxuCheHmFr-35" value="Extends" style="endArrow=open;endSize=12;dashed=1;html=1;rounded=0;" edge="1" parent="aXXytz8-QFqxuCheHmFr-1" source="aXXytz8-QFqxuCheHmFr-30" target="aXXytz8-QFqxuCheHmFr-26">
          <mxGeometry width="160" relative="1" as="geometry">
            <mxPoint x="439" y="992" as="sourcePoint" />
            <mxPoint x="371" y="910" as="targetPoint" />
          </mxGeometry>
        </mxCell>
        <mxCell id="aXXytz8-QFqxuCheHmFr-38" value="View destinations list" style="ellipse;whiteSpace=wrap;html=1;" vertex="1" parent="aXXytz8-QFqxuCheHmFr-1">
          <mxGeometry x="630" y="870" width="90" height="60" as="geometry" />
        </mxCell>
        <mxCell id="aXXytz8-QFqxuCheHmFr-43" value="Add destination to bucket list" style="ellipse;whiteSpace=wrap;html=1;" vertex="1" parent="aXXytz8-QFqxuCheHmFr-1">
          <mxGeometry x="287.5" y="1040" width="92.5" height="60" as="geometry" />
        </mxCell>
        <mxCell id="aXXytz8-QFqxuCheHmFr-44" value="Update bucket list" style="ellipse;whiteSpace=wrap;html=1;" vertex="1" parent="aXXytz8-QFqxuCheHmFr-1">
          <mxGeometry x="-80" y="990" width="90" height="70" as="geometry" />
        </mxCell>
        <mxCell id="aXXytz8-QFqxuCheHmFr-45" value="Extends" style="endArrow=open;endSize=12;dashed=1;html=1;rounded=0;" edge="1" parent="aXXytz8-QFqxuCheHmFr-1" source="aXXytz8-QFqxuCheHmFr-44" target="aXXytz8-QFqxuCheHmFr-26">
          <mxGeometry width="160" relative="1" as="geometry">
            <mxPoint x="483" y="1165" as="sourcePoint" />
            <mxPoint x="70" y="970" as="targetPoint" />
          </mxGeometry>
        </mxCell>
        <mxCell id="aXXytz8-QFqxuCheHmFr-46" value="Delete destination from bucket list" style="ellipse;whiteSpace=wrap;html=1;" vertex="1" parent="aXXytz8-QFqxuCheHmFr-1">
          <mxGeometry x="-100" y="1180" width="95" height="60" as="geometry" />
        </mxCell>
        <mxCell id="aXXytz8-QFqxuCheHmFr-47" value="Extends" style="endArrow=open;endSize=12;dashed=1;html=1;rounded=0;" edge="1" parent="aXXytz8-QFqxuCheHmFr-1" source="aXXytz8-QFqxuCheHmFr-43" target="aXXytz8-QFqxuCheHmFr-59">
          <mxGeometry width="160" relative="1" as="geometry">
            <mxPoint x="390" y="1123" as="sourcePoint" />
            <mxPoint x="338" y="1067" as="targetPoint" />
          </mxGeometry>
        </mxCell>
        <mxCell id="aXXytz8-QFqxuCheHmFr-50" value="Update private destination" style="ellipse;whiteSpace=wrap;html=1;" vertex="1" parent="aXXytz8-QFqxuCheHmFr-1">
          <mxGeometry x="760" y="1040" width="90" height="60" as="geometry" />
        </mxCell>
        <mxCell id="aXXytz8-QFqxuCheHmFr-51" value="Create private destination" style="ellipse;whiteSpace=wrap;html=1;" vertex="1" parent="aXXytz8-QFqxuCheHmFr-1">
          <mxGeometry x="500" y="1040" width="90" height="60" as="geometry" />
        </mxCell>
        <mxCell id="aXXytz8-QFqxuCheHmFr-53" value="Includes" style="endArrow=open;endSize=12;dashed=1;html=1;rounded=0;" edge="1" parent="aXXytz8-QFqxuCheHmFr-1" source="aXXytz8-QFqxuCheHmFr-38" target="aXXytz8-QFqxuCheHmFr-8">
          <mxGeometry x="-0.3221" y="-1" width="160" relative="1" as="geometry">
            <mxPoint x="503" y="851" as="sourcePoint" />
            <mxPoint x="505" y="930" as="targetPoint" />
            <mxPoint as="offset" />
          </mxGeometry>
        </mxCell>
        <mxCell id="aXXytz8-QFqxuCheHmFr-54" value="Delete private destination" style="ellipse;whiteSpace=wrap;html=1;" vertex="1" parent="aXXytz8-QFqxuCheHmFr-1">
          <mxGeometry x="630" y="1040" width="90" height="60" as="geometry" />
        </mxCell>
        <mxCell id="aXXytz8-QFqxuCheHmFr-55" value="Extends" style="endArrow=open;endSize=12;dashed=1;html=1;rounded=0;" edge="1" parent="aXXytz8-QFqxuCheHmFr-1" source="aXXytz8-QFqxuCheHmFr-46" target="aXXytz8-QFqxuCheHmFr-59">
          <mxGeometry width="160" relative="1" as="geometry">
            <mxPoint x="20" y="1080" as="sourcePoint" />
            <mxPoint x="296" y="1097" as="targetPoint" />
          </mxGeometry>
        </mxCell>
        <mxCell id="aXXytz8-QFqxuCheHmFr-57" value="Extends" style="endArrow=open;endSize=12;dashed=1;html=1;rounded=0;" edge="1" parent="aXXytz8-QFqxuCheHmFr-1" source="aXXytz8-QFqxuCheHmFr-54" target="aXXytz8-QFqxuCheHmFr-38">
          <mxGeometry x="-0.3221" y="-1" width="160" relative="1" as="geometry">
            <mxPoint x="522" y="981" as="sourcePoint" />
            <mxPoint x="478" y="889" as="targetPoint" />
            <mxPoint as="offset" />
          </mxGeometry>
        </mxCell>
        <mxCell id="aXXytz8-QFqxuCheHmFr-58" value="Extends" style="endArrow=open;endSize=12;dashed=1;html=1;rounded=0;" edge="1" parent="aXXytz8-QFqxuCheHmFr-1" source="aXXytz8-QFqxuCheHmFr-50" target="aXXytz8-QFqxuCheHmFr-38">
          <mxGeometry x="-0.3272" y="-1" width="160" relative="1" as="geometry">
            <mxPoint x="650" y="910" as="sourcePoint" />
            <mxPoint x="494" y="883" as="targetPoint" />
            <mxPoint as="offset" />
          </mxGeometry>
        </mxCell>
        <mxCell id="aXXytz8-QFqxuCheHmFr-59" value="View specific bucket list" style="ellipse;whiteSpace=wrap;html=1;" vertex="1" parent="aXXytz8-QFqxuCheHmFr-1">
          <mxGeometry x="85" y="1010" width="90" height="50" as="geometry" />
        </mxCell>
        <mxCell id="aXXytz8-QFqxuCheHmFr-60" value="Extends" style="endArrow=open;endSize=12;dashed=1;html=1;rounded=0;" edge="1" parent="aXXytz8-QFqxuCheHmFr-1" source="aXXytz8-QFqxuCheHmFr-59" target="aXXytz8-QFqxuCheHmFr-26">
          <mxGeometry width="160" relative="1" as="geometry">
            <mxPoint x="453" y="1180" as="sourcePoint" />
            <mxPoint x="250" y="860" as="targetPoint" />
          </mxGeometry>
        </mxCell>
        <mxCell id="aXXytz8-QFqxuCheHmFr-61" value="" style="endArrow=none;html=1;rounded=0;" edge="1" parent="aXXytz8-QFqxuCheHmFr-1" source="aXXytz8-QFqxuCheHmFr-9" target="aXXytz8-QFqxuCheHmFr-14">
          <mxGeometry width="50" height="50" relative="1" as="geometry">
            <mxPoint x="150" y="345" as="sourcePoint" />
            <mxPoint x="650" y="520" as="targetPoint" />
            <Array as="points">
              <mxPoint x="420" y="520" />
            </Array>
          </mxGeometry>
        </mxCell>
        <mxCell id="aXXytz8-QFqxuCheHmFr-62" value="" style="endArrow=none;html=1;rounded=0;" edge="1" parent="aXXytz8-QFqxuCheHmFr-1" target="aXXytz8-QFqxuCheHmFr-14" source="aXXytz8-QFqxuCheHmFr-26">
          <mxGeometry width="50" height="50" relative="1" as="geometry">
            <mxPoint x="280" y="860" as="sourcePoint" />
            <mxPoint x="440" y="780" as="targetPoint" />
            <Array as="points" />
          </mxGeometry>
        </mxCell>
        <mxCell id="aXXytz8-QFqxuCheHmFr-63" value="" style="endArrow=none;html=1;rounded=0;" edge="1" parent="aXXytz8-QFqxuCheHmFr-1" source="aXXytz8-QFqxuCheHmFr-4" target="aXXytz8-QFqxuCheHmFr-14">
          <mxGeometry width="50" height="50" relative="1" as="geometry">
            <mxPoint x="219" y="478" as="sourcePoint" />
            <mxPoint x="340" y="540" as="targetPoint" />
            <Array as="points">
              <mxPoint x="690" y="470" />
            </Array>
          </mxGeometry>
        </mxCell>
        <mxCell id="aXXytz8-QFqxuCheHmFr-64" value="" style="endArrow=none;html=1;rounded=0;" edge="1" parent="aXXytz8-QFqxuCheHmFr-1" source="aXXytz8-QFqxuCheHmFr-7" target="aXXytz8-QFqxuCheHmFr-14">
          <mxGeometry width="50" height="50" relative="1" as="geometry">
            <mxPoint x="375" y="360" as="sourcePoint" />
            <mxPoint x="460" y="390" as="targetPoint" />
            <Array as="points">
              <mxPoint x="510" y="420" />
              <mxPoint x="780" y="450" />
            </Array>
          </mxGeometry>
        </mxCell>
        <mxCell id="aXXytz8-QFqxuCheHmFr-65" value="Update public destination" style="ellipse;whiteSpace=wrap;html=1;" vertex="1" parent="aXXytz8-QFqxuCheHmFr-1">
          <mxGeometry x="383" y="140" width="100" height="60" as="geometry" />
        </mxCell>
        <mxCell id="aXXytz8-QFqxuCheHmFr-66" value="Extends" style="endArrow=open;endSize=12;dashed=1;html=1;rounded=0;" edge="1" parent="aXXytz8-QFqxuCheHmFr-1" source="aXXytz8-QFqxuCheHmFr-65" target="aXXytz8-QFqxuCheHmFr-7">
          <mxGeometry x="0.0016" width="160" relative="1" as="geometry">
            <mxPoint x="515" y="357" as="sourcePoint" />
            <mxPoint x="425" y="333" as="targetPoint" />
            <mxPoint as="offset" />
          </mxGeometry>
        </mxCell>
        <mxCell id="aXXytz8-QFqxuCheHmFr-71" value="Extends" style="endArrow=open;endSize=12;dashed=1;html=1;rounded=0;" edge="1" parent="aXXytz8-QFqxuCheHmFr-1" source="aXXytz8-QFqxuCheHmFr-43" target="aXXytz8-QFqxuCheHmFr-38">
          <mxGeometry width="160" relative="1" as="geometry">
            <mxPoint x="320" y="1310" as="sourcePoint" />
            <mxPoint x="520" y="1280" as="targetPoint" />
          </mxGeometry>
        </mxCell>
        <mxCell id="3AbzfMFEjFb07128ErBQ-0" value="" style="endArrow=none;html=1;rounded=0;" edge="1" parent="aXXytz8-QFqxuCheHmFr-1" source="aXXytz8-QFqxuCheHmFr-8" target="aXXytz8-QFqxuCheHmFr-14">
          <mxGeometry width="50" height="50" relative="1" as="geometry">
            <mxPoint x="200" y="690" as="sourcePoint" />
            <mxPoint x="1100" y="600" as="targetPoint" />
            <Array as="points">
              <mxPoint x="420" y="600" />
              <mxPoint x="570" y="590" />
            </Array>
          </mxGeometry>
        </mxCell>
        <mxCell id="s-YCTtEerngGFl8KOsAE-2" value="Delete bucket list" style="ellipse;whiteSpace=wrap;html=1;" vertex="1" parent="aXXytz8-QFqxuCheHmFr-1">
          <mxGeometry x="-140" y="850" width="90" height="70" as="geometry" />
        </mxCell>
        <mxCell id="s-YCTtEerngGFl8KOsAE-3" value="Extends" style="endArrow=open;endSize=12;dashed=1;html=1;rounded=0;" edge="1" parent="aXXytz8-QFqxuCheHmFr-1" source="s-YCTtEerngGFl8KOsAE-2" target="aXXytz8-QFqxuCheHmFr-26">
          <mxGeometry width="160" relative="1" as="geometry">
            <mxPoint x="20" y="1327" as="sourcePoint" />
            <mxPoint x="60" y="960" as="targetPoint" />
          </mxGeometry>
        </mxCell>
        <mxCell id="OW7zxquwf8ZAM_zqTnH0-0" value="" style="endArrow=none;html=1;rounded=0;" edge="1" parent="aXXytz8-QFqxuCheHmFr-1" source="aXXytz8-QFqxuCheHmFr-38" target="aXXytz8-QFqxuCheHmFr-14">
          <mxGeometry width="50" height="50" relative="1" as="geometry">
            <mxPoint x="327" y="856" as="sourcePoint" />
            <mxPoint x="1100" y="610" as="targetPoint" />
            <Array as="points" />
          </mxGeometry>
        </mxCell>
        <mxCell id="CJO8QSBF0R7AQAr7Lazj-0" value="Extends" style="endArrow=open;endSize=12;dashed=1;html=1;rounded=0;" edge="1" parent="aXXytz8-QFqxuCheHmFr-1" source="aXXytz8-QFqxuCheHmFr-51" target="aXXytz8-QFqxuCheHmFr-38">
          <mxGeometry width="160" relative="1" as="geometry">
            <mxPoint x="315" y="1210" as="sourcePoint" />
            <mxPoint x="680" y="930" as="targetPoint" />
          </mxGeometry>
        </mxCell>
      </root>
    </mxGraphModel>
  </diagram>
  <diagram name="Subsystems" id="enu0Hd_yuW2j1tw00L6e">
    <mxGraphModel grid="1" page="1" gridSize="10" guides="1" tooltips="1" connect="1" arrows="1" fold="1" pageScale="1" pageWidth="850" pageHeight="1100" math="0" shadow="0">
      <root>
        <mxCell id="O84AZBFu7zNaBvwOUx20-0" />
        <mxCell id="O84AZBFu7zNaBvwOUx20-1" parent="O84AZBFu7zNaBvwOUx20-0" />
        <mxCell id="sMmr_Dn9VEnwr-5VWLKB-7" value="" style="verticalLabelPosition=bottom;verticalAlign=top;html=1;shape=mxgraph.basic.rect;fillColor2=none;strokeWidth=1;size=20;indent=5;fillColor=#fa6800;fontColor=#000000;strokeColor=#C73500;" vertex="1" parent="O84AZBFu7zNaBvwOUx20-1">
          <mxGeometry x="520" y="570" width="190" height="210" as="geometry" />
        </mxCell>
        <mxCell id="sMmr_Dn9VEnwr-5VWLKB-6" value="" style="verticalLabelPosition=bottom;verticalAlign=top;html=1;shape=mxgraph.basic.rect;fillColor2=none;strokeWidth=1;size=20;indent=5;fillColor=#a20025;fontColor=#ffffff;strokeColor=#6F0000;" vertex="1" parent="O84AZBFu7zNaBvwOUx20-1">
          <mxGeometry x="100" y="980" width="355" height="270" as="geometry" />
        </mxCell>
        <mxCell id="sMmr_Dn9VEnwr-5VWLKB-4" value="" style="verticalLabelPosition=bottom;verticalAlign=top;html=1;shape=mxgraph.basic.rect;fillColor2=none;strokeWidth=1;size=20;indent=5;fillColor=#60a917;fontColor=#ffffff;strokeColor=#2D7600;" vertex="1" parent="O84AZBFu7zNaBvwOUx20-1">
          <mxGeometry x="490" y="860" width="380" height="330" as="geometry" />
        </mxCell>
        <mxCell id="sMmr_Dn9VEnwr-5VWLKB-3" value="" style="verticalLabelPosition=bottom;verticalAlign=top;html=1;shape=mxgraph.basic.rect;fillColor2=none;strokeWidth=1;size=20;indent=5;fillColor=#1ba1e2;fontColor=#ffffff;strokeColor=#006EAF;" vertex="1" parent="O84AZBFu7zNaBvwOUx20-1">
          <mxGeometry x="-300" y="840" width="370" height="260" as="geometry" />
        </mxCell>
        <mxCell id="sMmr_Dn9VEnwr-5VWLKB-1" value="" style="verticalLabelPosition=bottom;verticalAlign=top;html=1;shape=mxgraph.basic.rect;fillColor2=none;strokeWidth=1;size=20;indent=5;fillColor=#60a917;fontColor=#ffffff;strokeColor=#2D7600;" vertex="1" parent="O84AZBFu7zNaBvwOUx20-1">
          <mxGeometry x="260" y="50" width="460" height="340" as="geometry" />
        </mxCell>
        <mxCell id="sMmr_Dn9VEnwr-5VWLKB-0" value="" style="verticalLabelPosition=bottom;verticalAlign=top;html=1;shape=mxgraph.basic.rect;fillColor2=none;strokeWidth=1;size=20;indent=5;fillColor=#d80073;fontColor=#ffffff;strokeColor=#A50040;" vertex="1" parent="O84AZBFu7zNaBvwOUx20-1">
          <mxGeometry x="130" y="460" width="290" height="320" as="geometry" />
        </mxCell>
        <mxCell id="O84AZBFu7zNaBvwOUx20-2" value="User" style="shape=umlActor;verticalLabelPosition=bottom;verticalAlign=top;html=1;outlineConnect=0;" vertex="1" parent="O84AZBFu7zNaBvwOUx20-1">
          <mxGeometry x="10" y="720" width="30" height="60" as="geometry" />
        </mxCell>
        <mxCell id="O84AZBFu7zNaBvwOUx20-3" value="Admin" style="shape=umlActor;verticalLabelPosition=bottom;verticalAlign=top;html=1;outlineConnect=0;" vertex="1" parent="O84AZBFu7zNaBvwOUx20-1">
          <mxGeometry x="40" y="400" width="30" height="60" as="geometry" />
        </mxCell>
        <mxCell id="O84AZBFu7zNaBvwOUx20-4" value="LogIn" style="ellipse;whiteSpace=wrap;html=1;" vertex="1" parent="O84AZBFu7zNaBvwOUx20-1">
          <mxGeometry x="180" y="485" width="80" height="40" as="geometry" />
        </mxCell>
        <mxCell id="O84AZBFu7zNaBvwOUx20-5" value="" style="endArrow=none;html=1;rounded=0;" edge="1" parent="O84AZBFu7zNaBvwOUx20-1" source="O84AZBFu7zNaBvwOUx20-3" target="O84AZBFu7zNaBvwOUx20-4">
          <mxGeometry width="50" height="50" relative="1" as="geometry">
            <mxPoint x="400" y="610" as="sourcePoint" />
            <mxPoint x="450" y="560" as="targetPoint" />
          </mxGeometry>
        </mxCell>
        <mxCell id="O84AZBFu7zNaBvwOUx20-6" value="View public destinations" style="ellipse;whiteSpace=wrap;html=1;" vertex="1" parent="O84AZBFu7zNaBvwOUx20-1">
          <mxGeometry x="300" y="290" width="100" height="60" as="geometry" />
        </mxCell>
        <mxCell id="O84AZBFu7zNaBvwOUx20-7" value="LogIn" style="ellipse;whiteSpace=wrap;html=1;" vertex="1" parent="O84AZBFu7zNaBvwOUx20-1">
          <mxGeometry x="310" y="720" width="80" height="40" as="geometry" />
        </mxCell>
        <mxCell id="O84AZBFu7zNaBvwOUx20-8" value="Register" style="ellipse;whiteSpace=wrap;html=1;" vertex="1" parent="O84AZBFu7zNaBvwOUx20-1">
          <mxGeometry x="170" y="610" width="80" height="40" as="geometry" />
        </mxCell>
        <mxCell id="O84AZBFu7zNaBvwOUx20-9" value="" style="endArrow=none;html=1;rounded=0;" edge="1" parent="O84AZBFu7zNaBvwOUx20-1" source="O84AZBFu7zNaBvwOUx20-2" target="O84AZBFu7zNaBvwOUx20-10">
          <mxGeometry width="50" height="50" relative="1" as="geometry">
            <mxPoint x="90" y="800" as="sourcePoint" />
            <mxPoint x="170" y="740" as="targetPoint" />
          </mxGeometry>
        </mxCell>
        <mxCell id="O84AZBFu7zNaBvwOUx20-10" value="Access account" style="ellipse;whiteSpace=wrap;html=1;" vertex="1" parent="O84AZBFu7zNaBvwOUx20-1">
          <mxGeometry x="150" y="730" width="80" height="40" as="geometry" />
        </mxCell>
        <mxCell id="O84AZBFu7zNaBvwOUx20-11" value="Delete public destination" style="ellipse;whiteSpace=wrap;html=1;" vertex="1" parent="O84AZBFu7zNaBvwOUx20-1">
          <mxGeometry x="530" y="290" width="100" height="60" as="geometry" />
        </mxCell>
        <mxCell id="O84AZBFu7zNaBvwOUx20-12" value="Create public destination" style="ellipse;whiteSpace=wrap;html=1;" vertex="1" parent="O84AZBFu7zNaBvwOUx20-1">
          <mxGeometry x="530" y="200" width="100" height="60" as="geometry" />
        </mxCell>
        <mxCell id="O84AZBFu7zNaBvwOUx20-13" value="" style="rounded=0;whiteSpace=wrap;html=1;rotation=90;" vertex="1" parent="O84AZBFu7zNaBvwOUx20-1">
          <mxGeometry x="1060" y="560" width="120" height="60" as="geometry" />
        </mxCell>
        <mxCell id="O84AZBFu7zNaBvwOUx20-14" value="Server" style="text;html=1;align=center;verticalAlign=middle;resizable=0;points=[];autosize=1;strokeColor=none;fillColor=none;" vertex="1" parent="O84AZBFu7zNaBvwOUx20-1">
          <mxGeometry x="1092" y="490" width="60" height="30" as="geometry" />
        </mxCell>
        <mxCell id="O84AZBFu7zNaBvwOUx20-15" value="" style="rounded=0;whiteSpace=wrap;html=1;" vertex="1" parent="O84AZBFu7zNaBvwOUx20-1">
          <mxGeometry x="1110" y="540" width="20" height="20" as="geometry" />
        </mxCell>
        <mxCell id="O84AZBFu7zNaBvwOUx20-16" value="Includes&lt;br&gt;" style="endArrow=open;endSize=12;dashed=1;html=1;rounded=0;" edge="1" parent="O84AZBFu7zNaBvwOUx20-1" source="O84AZBFu7zNaBvwOUx20-7" target="O84AZBFu7zNaBvwOUx20-10">
          <mxGeometry width="160" relative="1" as="geometry">
            <mxPoint x="340" y="750" as="sourcePoint" />
            <mxPoint x="500" y="750" as="targetPoint" />
          </mxGeometry>
        </mxCell>
        <mxCell id="O84AZBFu7zNaBvwOUx20-17" value="Includes" style="endArrow=open;endSize=12;dashed=1;html=1;rounded=0;" edge="1" parent="O84AZBFu7zNaBvwOUx20-1" source="O84AZBFu7zNaBvwOUx20-8" target="O84AZBFu7zNaBvwOUx20-10">
          <mxGeometry width="160" relative="1" as="geometry">
            <mxPoint x="350" y="760" as="sourcePoint" />
            <mxPoint x="243" y="798" as="targetPoint" />
          </mxGeometry>
        </mxCell>
        <mxCell id="O84AZBFu7zNaBvwOUx20-18" value="Includes" style="endArrow=open;endSize=12;dashed=1;html=1;rounded=0;" edge="1" parent="O84AZBFu7zNaBvwOUx20-1" source="O84AZBFu7zNaBvwOUx20-6" target="O84AZBFu7zNaBvwOUx20-4">
          <mxGeometry x="0.0016" width="160" relative="1" as="geometry">
            <mxPoint x="355" y="511" as="sourcePoint" />
            <mxPoint x="260" y="460" as="targetPoint" />
            <mxPoint as="offset" />
          </mxGeometry>
        </mxCell>
        <mxCell id="O84AZBFu7zNaBvwOUx20-19" value="Delete account" style="ellipse;whiteSpace=wrap;html=1;" vertex="1" parent="O84AZBFu7zNaBvwOUx20-1">
          <mxGeometry x="570" y="620" width="80" height="40" as="geometry" />
        </mxCell>
        <mxCell id="O84AZBFu7zNaBvwOUx20-20" value="Update account" style="ellipse;whiteSpace=wrap;html=1;" vertex="1" parent="O84AZBFu7zNaBvwOUx20-1">
          <mxGeometry x="570" y="690" width="80" height="40" as="geometry" />
        </mxCell>
        <mxCell id="O84AZBFu7zNaBvwOUx20-21" value="Extends" style="endArrow=open;endSize=12;dashed=1;html=1;rounded=0;" edge="1" parent="O84AZBFu7zNaBvwOUx20-1" source="O84AZBFu7zNaBvwOUx20-11" target="O84AZBFu7zNaBvwOUx20-6">
          <mxGeometry x="0.0016" width="160" relative="1" as="geometry">
            <mxPoint x="520" y="350" as="sourcePoint" />
            <mxPoint x="288" y="436" as="targetPoint" />
            <mxPoint as="offset" />
          </mxGeometry>
        </mxCell>
        <mxCell id="O84AZBFu7zNaBvwOUx20-22" value="Extends" style="endArrow=open;endSize=12;dashed=1;html=1;rounded=0;" edge="1" parent="O84AZBFu7zNaBvwOUx20-1" source="O84AZBFu7zNaBvwOUx20-12" target="O84AZBFu7zNaBvwOUx20-6">
          <mxGeometry x="0.0016" width="160" relative="1" as="geometry">
            <mxPoint x="365" y="361" as="sourcePoint" />
            <mxPoint x="298" y="446" as="targetPoint" />
            <mxPoint as="offset" />
          </mxGeometry>
        </mxCell>
        <mxCell id="O84AZBFu7zNaBvwOUx20-23" value="Extends" style="endArrow=open;endSize=12;dashed=1;html=1;rounded=0;" edge="1" parent="O84AZBFu7zNaBvwOUx20-1" source="O84AZBFu7zNaBvwOUx20-19" target="O84AZBFu7zNaBvwOUx20-7">
          <mxGeometry width="160" relative="1" as="geometry">
            <mxPoint x="435" y="690" as="sourcePoint" />
            <mxPoint x="337" y="713" as="targetPoint" />
          </mxGeometry>
        </mxCell>
        <mxCell id="O84AZBFu7zNaBvwOUx20-24" value="Extends" style="endArrow=open;endSize=12;dashed=1;html=1;rounded=0;" edge="1" parent="O84AZBFu7zNaBvwOUx20-1" source="O84AZBFu7zNaBvwOUx20-20" target="O84AZBFu7zNaBvwOUx20-7">
          <mxGeometry width="160" relative="1" as="geometry">
            <mxPoint x="420" y="820" as="sourcePoint" />
            <mxPoint x="256" y="811" as="targetPoint" />
          </mxGeometry>
        </mxCell>
        <mxCell id="O84AZBFu7zNaBvwOUx20-25" value="View bucket lists" style="ellipse;whiteSpace=wrap;html=1;" vertex="1" parent="O84AZBFu7zNaBvwOUx20-1">
          <mxGeometry x="-56" y="910" width="96" height="60" as="geometry" />
        </mxCell>
        <mxCell id="O84AZBFu7zNaBvwOUx20-26" value="Includes" style="endArrow=open;endSize=12;dashed=1;html=1;rounded=0;" edge="1" parent="O84AZBFu7zNaBvwOUx20-1" source="O84AZBFu7zNaBvwOUx20-25" target="O84AZBFu7zNaBvwOUx20-7">
          <mxGeometry width="160" relative="1" as="geometry">
            <mxPoint x="360" y="620" as="sourcePoint" />
            <mxPoint x="520" y="620" as="targetPoint" />
          </mxGeometry>
        </mxCell>
        <mxCell id="O84AZBFu7zNaBvwOUx20-27" value="Create new bucket list" style="ellipse;whiteSpace=wrap;html=1;" vertex="1" parent="O84AZBFu7zNaBvwOUx20-1">
          <mxGeometry x="-260" y="945" width="85" height="50" as="geometry" />
        </mxCell>
        <mxCell id="O84AZBFu7zNaBvwOUx20-28" value="Delete bucket list" style="ellipse;whiteSpace=wrap;html=1;" vertex="1" parent="O84AZBFu7zNaBvwOUx20-1">
          <mxGeometry x="-220" y="1020" width="90" height="50" as="geometry" />
        </mxCell>
        <mxCell id="O84AZBFu7zNaBvwOUx20-29" value="Extends" style="endArrow=open;endSize=12;dashed=1;html=1;rounded=0;" edge="1" parent="O84AZBFu7zNaBvwOUx20-1" source="O84AZBFu7zNaBvwOUx20-27" target="O84AZBFu7zNaBvwOUx20-25">
          <mxGeometry width="160" relative="1" as="geometry">
            <mxPoint x="502" y="908" as="sourcePoint" />
            <mxPoint x="250" y="910" as="targetPoint" />
          </mxGeometry>
        </mxCell>
        <mxCell id="O84AZBFu7zNaBvwOUx20-30" value="Extends" style="endArrow=open;endSize=12;dashed=1;html=1;rounded=0;" edge="1" parent="O84AZBFu7zNaBvwOUx20-1" source="O84AZBFu7zNaBvwOUx20-28" target="O84AZBFu7zNaBvwOUx20-25">
          <mxGeometry width="160" relative="1" as="geometry">
            <mxPoint x="439" y="992" as="sourcePoint" />
            <mxPoint x="371" y="910" as="targetPoint" />
          </mxGeometry>
        </mxCell>
        <mxCell id="O84AZBFu7zNaBvwOUx20-31" value="View destinations list" style="ellipse;whiteSpace=wrap;html=1;" vertex="1" parent="O84AZBFu7zNaBvwOUx20-1">
          <mxGeometry x="630" y="870" width="90" height="60" as="geometry" />
        </mxCell>
        <mxCell id="O84AZBFu7zNaBvwOUx20-32" value="Add destination to bucket list" style="ellipse;whiteSpace=wrap;html=1;" vertex="1" parent="O84AZBFu7zNaBvwOUx20-1">
          <mxGeometry x="303.75" y="1170" width="92.5" height="60" as="geometry" />
        </mxCell>
        <mxCell id="O84AZBFu7zNaBvwOUx20-33" value="Update bucket list" style="ellipse;whiteSpace=wrap;html=1;" vertex="1" parent="O84AZBFu7zNaBvwOUx20-1">
          <mxGeometry x="-260" y="860" width="90" height="70" as="geometry" />
        </mxCell>
        <mxCell id="O84AZBFu7zNaBvwOUx20-34" value="Extends" style="endArrow=open;endSize=12;dashed=1;html=1;rounded=0;" edge="1" parent="O84AZBFu7zNaBvwOUx20-1" source="O84AZBFu7zNaBvwOUx20-33" target="O84AZBFu7zNaBvwOUx20-25">
          <mxGeometry width="160" relative="1" as="geometry">
            <mxPoint x="483" y="1165" as="sourcePoint" />
            <mxPoint x="70" y="970" as="targetPoint" />
          </mxGeometry>
        </mxCell>
        <mxCell id="O84AZBFu7zNaBvwOUx20-35" value="Delete destination from bucket list" style="ellipse;whiteSpace=wrap;html=1;" vertex="1" parent="O84AZBFu7zNaBvwOUx20-1">
          <mxGeometry x="142.5" y="1170" width="95" height="60" as="geometry" />
        </mxCell>
        <mxCell id="O84AZBFu7zNaBvwOUx20-36" value="Extends" style="endArrow=open;endSize=12;dashed=1;html=1;rounded=0;" edge="1" parent="O84AZBFu7zNaBvwOUx20-1" source="O84AZBFu7zNaBvwOUx20-32" target="O84AZBFu7zNaBvwOUx20-44">
          <mxGeometry width="160" relative="1" as="geometry">
            <mxPoint x="390" y="1123" as="sourcePoint" />
            <mxPoint x="338" y="1067" as="targetPoint" />
          </mxGeometry>
        </mxCell>
        <mxCell id="O84AZBFu7zNaBvwOUx20-37" value="Update private destination" style="ellipse;whiteSpace=wrap;html=1;" vertex="1" parent="O84AZBFu7zNaBvwOUx20-1">
          <mxGeometry x="750" y="1100" width="90" height="60" as="geometry" />
        </mxCell>
        <mxCell id="O84AZBFu7zNaBvwOUx20-38" value="Create private destination" style="ellipse;whiteSpace=wrap;html=1;" vertex="1" parent="O84AZBFu7zNaBvwOUx20-1">
          <mxGeometry x="525" y="1100" width="90" height="60" as="geometry" />
        </mxCell>
        <mxCell id="O84AZBFu7zNaBvwOUx20-39" value="Includes" style="endArrow=open;endSize=12;dashed=1;html=1;rounded=0;" edge="1" parent="O84AZBFu7zNaBvwOUx20-1" source="O84AZBFu7zNaBvwOUx20-31" target="O84AZBFu7zNaBvwOUx20-7">
          <mxGeometry x="-0.3221" y="-1" width="160" relative="1" as="geometry">
            <mxPoint x="503" y="851" as="sourcePoint" />
            <mxPoint x="505" y="930" as="targetPoint" />
            <mxPoint as="offset" />
          </mxGeometry>
        </mxCell>
        <mxCell id="O84AZBFu7zNaBvwOUx20-40" value="Delete private destination" style="ellipse;whiteSpace=wrap;html=1;" vertex="1" parent="O84AZBFu7zNaBvwOUx20-1">
          <mxGeometry x="630" y="1100" width="90" height="60" as="geometry" />
        </mxCell>
        <mxCell id="O84AZBFu7zNaBvwOUx20-41" value="Extends" style="endArrow=open;endSize=12;dashed=1;html=1;rounded=0;" edge="1" parent="O84AZBFu7zNaBvwOUx20-1" source="O84AZBFu7zNaBvwOUx20-35" target="O84AZBFu7zNaBvwOUx20-44">
          <mxGeometry width="160" relative="1" as="geometry">
            <mxPoint x="20" y="1080" as="sourcePoint" />
            <mxPoint x="296" y="1097" as="targetPoint" />
          </mxGeometry>
        </mxCell>
        <mxCell id="O84AZBFu7zNaBvwOUx20-42" value="Extends" style="endArrow=open;endSize=12;dashed=1;html=1;rounded=0;" edge="1" parent="O84AZBFu7zNaBvwOUx20-1" source="O84AZBFu7zNaBvwOUx20-40" target="O84AZBFu7zNaBvwOUx20-31">
          <mxGeometry x="-0.3221" y="-1" width="160" relative="1" as="geometry">
            <mxPoint x="522" y="981" as="sourcePoint" />
            <mxPoint x="478" y="889" as="targetPoint" />
            <mxPoint as="offset" />
          </mxGeometry>
        </mxCell>
        <mxCell id="O84AZBFu7zNaBvwOUx20-43" value="Extends" style="endArrow=open;endSize=12;dashed=1;html=1;rounded=0;" edge="1" parent="O84AZBFu7zNaBvwOUx20-1" source="O84AZBFu7zNaBvwOUx20-37" target="O84AZBFu7zNaBvwOUx20-31">
          <mxGeometry x="-0.3272" y="-1" width="160" relative="1" as="geometry">
            <mxPoint x="650" y="910" as="sourcePoint" />
            <mxPoint x="494" y="883" as="targetPoint" />
            <mxPoint as="offset" />
          </mxGeometry>
        </mxCell>
        <mxCell id="O84AZBFu7zNaBvwOUx20-44" value="View specific bucket list" style="ellipse;whiteSpace=wrap;html=1;" vertex="1" parent="O84AZBFu7zNaBvwOUx20-1">
          <mxGeometry x="213.75" y="1020" width="90" height="50" as="geometry" />
        </mxCell>
        <mxCell id="O84AZBFu7zNaBvwOUx20-45" value="Extends" style="endArrow=open;endSize=12;dashed=1;html=1;rounded=0;" edge="1" parent="O84AZBFu7zNaBvwOUx20-1" source="O84AZBFu7zNaBvwOUx20-44" target="O84AZBFu7zNaBvwOUx20-25">
          <mxGeometry width="160" relative="1" as="geometry">
            <mxPoint x="453" y="1180" as="sourcePoint" />
            <mxPoint x="250" y="860" as="targetPoint" />
          </mxGeometry>
        </mxCell>
        <mxCell id="O84AZBFu7zNaBvwOUx20-46" value="" style="endArrow=none;html=1;rounded=0;" edge="1" parent="O84AZBFu7zNaBvwOUx20-1" source="O84AZBFu7zNaBvwOUx20-8" target="O84AZBFu7zNaBvwOUx20-13">
          <mxGeometry width="50" height="50" relative="1" as="geometry">
            <mxPoint x="150" y="345" as="sourcePoint" />
            <mxPoint x="650" y="520" as="targetPoint" />
            <Array as="points">
              <mxPoint x="420" y="520" />
            </Array>
          </mxGeometry>
        </mxCell>
        <mxCell id="O84AZBFu7zNaBvwOUx20-47" value="" style="endArrow=none;html=1;rounded=0;" edge="1" parent="O84AZBFu7zNaBvwOUx20-1" source="O84AZBFu7zNaBvwOUx20-25" target="O84AZBFu7zNaBvwOUx20-13">
          <mxGeometry width="50" height="50" relative="1" as="geometry">
            <mxPoint x="280" y="860" as="sourcePoint" />
            <mxPoint x="440" y="780" as="targetPoint" />
            <Array as="points" />
          </mxGeometry>
        </mxCell>
        <mxCell id="O84AZBFu7zNaBvwOUx20-48" value="" style="endArrow=none;html=1;rounded=0;" edge="1" parent="O84AZBFu7zNaBvwOUx20-1" source="O84AZBFu7zNaBvwOUx20-4" target="O84AZBFu7zNaBvwOUx20-13">
          <mxGeometry width="50" height="50" relative="1" as="geometry">
            <mxPoint x="219" y="478" as="sourcePoint" />
            <mxPoint x="340" y="540" as="targetPoint" />
            <Array as="points">
              <mxPoint x="690" y="470" />
            </Array>
          </mxGeometry>
        </mxCell>
        <mxCell id="O84AZBFu7zNaBvwOUx20-49" value="" style="endArrow=none;html=1;rounded=0;" edge="1" parent="O84AZBFu7zNaBvwOUx20-1" source="O84AZBFu7zNaBvwOUx20-6" target="O84AZBFu7zNaBvwOUx20-13">
          <mxGeometry width="50" height="50" relative="1" as="geometry">
            <mxPoint x="375" y="360" as="sourcePoint" />
            <mxPoint x="460" y="390" as="targetPoint" />
            <Array as="points">
              <mxPoint x="510" y="420" />
              <mxPoint x="780" y="450" />
            </Array>
          </mxGeometry>
        </mxCell>
        <mxCell id="O84AZBFu7zNaBvwOUx20-50" value="Update public destination" style="ellipse;whiteSpace=wrap;html=1;" vertex="1" parent="O84AZBFu7zNaBvwOUx20-1">
          <mxGeometry x="520" y="90" width="100" height="60" as="geometry" />
        </mxCell>
        <mxCell id="O84AZBFu7zNaBvwOUx20-51" value="Extends" style="endArrow=open;endSize=12;dashed=1;html=1;rounded=0;" edge="1" parent="O84AZBFu7zNaBvwOUx20-1" source="O84AZBFu7zNaBvwOUx20-50" target="O84AZBFu7zNaBvwOUx20-6">
          <mxGeometry x="0.0016" width="160" relative="1" as="geometry">
            <mxPoint x="515" y="357" as="sourcePoint" />
            <mxPoint x="425" y="333" as="targetPoint" />
            <mxPoint as="offset" />
          </mxGeometry>
        </mxCell>
        <mxCell id="O84AZBFu7zNaBvwOUx20-52" value="Extends" style="endArrow=open;endSize=12;dashed=1;html=1;rounded=0;" edge="1" parent="O84AZBFu7zNaBvwOUx20-1" source="O84AZBFu7zNaBvwOUx20-32" target="O84AZBFu7zNaBvwOUx20-31">
          <mxGeometry width="160" relative="1" as="geometry">
            <mxPoint x="320" y="1310" as="sourcePoint" />
            <mxPoint x="520" y="1280" as="targetPoint" />
          </mxGeometry>
        </mxCell>
        <mxCell id="O84AZBFu7zNaBvwOUx20-53" value="" style="endArrow=none;html=1;rounded=0;" edge="1" parent="O84AZBFu7zNaBvwOUx20-1" source="O84AZBFu7zNaBvwOUx20-7" target="O84AZBFu7zNaBvwOUx20-13">
          <mxGeometry width="50" height="50" relative="1" as="geometry">
            <mxPoint x="200" y="690" as="sourcePoint" />
            <mxPoint x="1100" y="600" as="targetPoint" />
            <Array as="points">
              <mxPoint x="420" y="600" />
              <mxPoint x="570" y="590" />
            </Array>
          </mxGeometry>
        </mxCell>
        <mxCell id="O84AZBFu7zNaBvwOUx20-56" value="" style="endArrow=none;html=1;rounded=0;" edge="1" parent="O84AZBFu7zNaBvwOUx20-1" source="O84AZBFu7zNaBvwOUx20-31" target="O84AZBFu7zNaBvwOUx20-13">
          <mxGeometry width="50" height="50" relative="1" as="geometry">
            <mxPoint x="327" y="856" as="sourcePoint" />
            <mxPoint x="1100" y="610" as="targetPoint" />
            <Array as="points" />
          </mxGeometry>
        </mxCell>
        <mxCell id="O84AZBFu7zNaBvwOUx20-57" value="Extends" style="endArrow=open;endSize=12;dashed=1;html=1;rounded=0;" edge="1" parent="O84AZBFu7zNaBvwOUx20-1" source="O84AZBFu7zNaBvwOUx20-38" target="O84AZBFu7zNaBvwOUx20-31">
          <mxGeometry width="160" relative="1" as="geometry">
            <mxPoint x="315" y="1210" as="sourcePoint" />
            <mxPoint x="680" y="930" as="targetPoint" />
          </mxGeometry>
        </mxCell>
      </root>
    </mxGraphModel>
  </diagram>
  <diagram name="Old" id="9_JTOyiYHWFGP9wVglSI">
    <mxGraphModel grid="1" page="1" gridSize="10" guides="1" tooltips="1" connect="1" arrows="1" fold="1" pageScale="1" pageWidth="850" pageHeight="1100" math="0" shadow="0">
      <root>
        <mxCell id="uEssap30zd--ibcW4NNl-0" />
        <mxCell id="uEssap30zd--ibcW4NNl-1" parent="uEssap30zd--ibcW4NNl-0" />
        <mxCell id="uEssap30zd--ibcW4NNl-2" value="User" style="shape=umlActor;verticalLabelPosition=bottom;verticalAlign=top;html=1;outlineConnect=0;" vertex="1" parent="uEssap30zd--ibcW4NNl-1">
          <mxGeometry x="40" y="760" width="30" height="60" as="geometry" />
        </mxCell>
        <mxCell id="uEssap30zd--ibcW4NNl-3" value="Admin" style="shape=umlActor;verticalLabelPosition=bottom;verticalAlign=top;html=1;outlineConnect=0;" vertex="1" parent="uEssap30zd--ibcW4NNl-1">
          <mxGeometry x="40" y="400" width="30" height="60" as="geometry" />
        </mxCell>
        <mxCell id="uEssap30zd--ibcW4NNl-4" value="LogIn" style="ellipse;whiteSpace=wrap;html=1;" vertex="1" parent="uEssap30zd--ibcW4NNl-1">
          <mxGeometry x="200" y="410" width="80" height="40" as="geometry" />
        </mxCell>
        <mxCell id="uEssap30zd--ibcW4NNl-5" value="" style="endArrow=none;html=1;rounded=0;" edge="1" parent="uEssap30zd--ibcW4NNl-1" source="uEssap30zd--ibcW4NNl-3" target="uEssap30zd--ibcW4NNl-4">
          <mxGeometry width="50" height="50" relative="1" as="geometry">
            <mxPoint x="400" y="610" as="sourcePoint" />
            <mxPoint x="450" y="560" as="targetPoint" />
          </mxGeometry>
        </mxCell>
        <mxCell id="uEssap30zd--ibcW4NNl-6" value="Association" style="edgeLabel;html=1;align=center;verticalAlign=middle;resizable=0;points=[];" connectable="0" vertex="1" parent="uEssap30zd--ibcW4NNl-5">
          <mxGeometry x="0.3556" y="-2" relative="1" as="geometry">
            <mxPoint x="-11" y="-12" as="offset" />
          </mxGeometry>
        </mxCell>
        <mxCell id="uEssap30zd--ibcW4NNl-7" value="View public destinations" style="ellipse;whiteSpace=wrap;html=1;" vertex="1" parent="uEssap30zd--ibcW4NNl-1">
          <mxGeometry x="300" y="290" width="100" height="60" as="geometry" />
        </mxCell>
        <mxCell id="uEssap30zd--ibcW4NNl-8" value="LogIn" style="ellipse;whiteSpace=wrap;html=1;" vertex="1" parent="uEssap30zd--ibcW4NNl-1">
          <mxGeometry x="310" y="720" width="80" height="40" as="geometry" />
        </mxCell>
        <mxCell id="uEssap30zd--ibcW4NNl-9" value="Register" style="ellipse;whiteSpace=wrap;html=1;" vertex="1" parent="uEssap30zd--ibcW4NNl-1">
          <mxGeometry x="110" y="660" width="80" height="40" as="geometry" />
        </mxCell>
        <mxCell id="uEssap30zd--ibcW4NNl-10" value="" style="endArrow=none;html=1;rounded=0;" edge="1" parent="uEssap30zd--ibcW4NNl-1" source="uEssap30zd--ibcW4NNl-2" target="uEssap30zd--ibcW4NNl-11">
          <mxGeometry width="50" height="50" relative="1" as="geometry">
            <mxPoint x="90" y="800" as="sourcePoint" />
            <mxPoint x="170" y="740" as="targetPoint" />
          </mxGeometry>
        </mxCell>
        <mxCell id="uEssap30zd--ibcW4NNl-11" value="Access account" style="ellipse;whiteSpace=wrap;html=1;" vertex="1" parent="uEssap30zd--ibcW4NNl-1">
          <mxGeometry x="152" y="770" width="80" height="40" as="geometry" />
        </mxCell>
        <mxCell id="uEssap30zd--ibcW4NNl-12" value="Delete public destination" style="ellipse;whiteSpace=wrap;html=1;" vertex="1" parent="uEssap30zd--ibcW4NNl-1">
          <mxGeometry x="520" y="330" width="100" height="60" as="geometry" />
        </mxCell>
        <mxCell id="uEssap30zd--ibcW4NNl-13" value="Create public destination" style="ellipse;whiteSpace=wrap;html=1;" vertex="1" parent="uEssap30zd--ibcW4NNl-1">
          <mxGeometry x="530" y="200" width="100" height="60" as="geometry" />
        </mxCell>
        <mxCell id="uEssap30zd--ibcW4NNl-14" value="" style="rounded=0;whiteSpace=wrap;html=1;rotation=90;" vertex="1" parent="uEssap30zd--ibcW4NNl-1">
          <mxGeometry x="1060" y="560" width="120" height="60" as="geometry" />
        </mxCell>
        <mxCell id="uEssap30zd--ibcW4NNl-15" value="Server" style="text;html=1;align=center;verticalAlign=middle;resizable=0;points=[];autosize=1;strokeColor=none;fillColor=none;" vertex="1" parent="uEssap30zd--ibcW4NNl-1">
          <mxGeometry x="1092" y="490" width="60" height="30" as="geometry" />
        </mxCell>
        <mxCell id="uEssap30zd--ibcW4NNl-16" value="" style="rounded=0;whiteSpace=wrap;html=1;" vertex="1" parent="uEssap30zd--ibcW4NNl-1">
          <mxGeometry x="1110" y="540" width="20" height="20" as="geometry" />
        </mxCell>
        <mxCell id="uEssap30zd--ibcW4NNl-17" value="Includes&lt;br&gt;" style="endArrow=open;endSize=12;dashed=1;html=1;rounded=0;" edge="1" parent="uEssap30zd--ibcW4NNl-1" source="uEssap30zd--ibcW4NNl-8" target="uEssap30zd--ibcW4NNl-11">
          <mxGeometry width="160" relative="1" as="geometry">
            <mxPoint x="340" y="750" as="sourcePoint" />
            <mxPoint x="500" y="750" as="targetPoint" />
          </mxGeometry>
        </mxCell>
        <mxCell id="uEssap30zd--ibcW4NNl-18" value="Includes" style="endArrow=open;endSize=12;dashed=1;html=1;rounded=0;entryX=0.388;entryY=-0.025;entryDx=0;entryDy=0;entryPerimeter=0;" edge="1" parent="uEssap30zd--ibcW4NNl-1" source="uEssap30zd--ibcW4NNl-9" target="uEssap30zd--ibcW4NNl-11">
          <mxGeometry width="160" relative="1" as="geometry">
            <mxPoint x="350" y="760" as="sourcePoint" />
            <mxPoint x="243" y="798" as="targetPoint" />
          </mxGeometry>
        </mxCell>
        <mxCell id="uEssap30zd--ibcW4NNl-19" value="Includes" style="endArrow=open;endSize=12;dashed=1;html=1;rounded=0;entryX=1;entryY=0;entryDx=0;entryDy=0;exitX=0;exitY=1;exitDx=0;exitDy=0;" edge="1" parent="uEssap30zd--ibcW4NNl-1" source="uEssap30zd--ibcW4NNl-7" target="uEssap30zd--ibcW4NNl-4">
          <mxGeometry x="0.0016" width="160" relative="1" as="geometry">
            <mxPoint x="355" y="511" as="sourcePoint" />
            <mxPoint x="260" y="460" as="targetPoint" />
            <mxPoint as="offset" />
          </mxGeometry>
        </mxCell>
        <mxCell id="uEssap30zd--ibcW4NNl-20" value="Delete account" style="ellipse;whiteSpace=wrap;html=1;" vertex="1" parent="uEssap30zd--ibcW4NNl-1">
          <mxGeometry x="480" y="620" width="80" height="40" as="geometry" />
        </mxCell>
        <mxCell id="uEssap30zd--ibcW4NNl-21" value="Update account" style="ellipse;whiteSpace=wrap;html=1;" vertex="1" parent="uEssap30zd--ibcW4NNl-1">
          <mxGeometry x="520" y="690" width="80" height="40" as="geometry" />
        </mxCell>
        <mxCell id="uEssap30zd--ibcW4NNl-22" value="Extends" style="endArrow=open;endSize=12;dashed=1;html=1;rounded=0;" edge="1" parent="uEssap30zd--ibcW4NNl-1" source="uEssap30zd--ibcW4NNl-12" target="uEssap30zd--ibcW4NNl-7">
          <mxGeometry x="0.0016" width="160" relative="1" as="geometry">
            <mxPoint x="520" y="350" as="sourcePoint" />
            <mxPoint x="288" y="436" as="targetPoint" />
            <mxPoint as="offset" />
          </mxGeometry>
        </mxCell>
        <mxCell id="uEssap30zd--ibcW4NNl-23" value="Extends" style="endArrow=open;endSize=12;dashed=1;html=1;rounded=0;entryX=1;entryY=0.333;entryDx=0;entryDy=0;entryPerimeter=0;exitX=0;exitY=0.5;exitDx=0;exitDy=0;" edge="1" parent="uEssap30zd--ibcW4NNl-1" source="uEssap30zd--ibcW4NNl-13" target="uEssap30zd--ibcW4NNl-7">
          <mxGeometry x="0.0016" width="160" relative="1" as="geometry">
            <mxPoint x="365" y="361" as="sourcePoint" />
            <mxPoint x="298" y="446" as="targetPoint" />
            <mxPoint as="offset" />
          </mxGeometry>
        </mxCell>
        <mxCell id="uEssap30zd--ibcW4NNl-24" value="Extends" style="endArrow=open;endSize=12;dashed=1;html=1;rounded=0;" edge="1" parent="uEssap30zd--ibcW4NNl-1" source="uEssap30zd--ibcW4NNl-20" target="uEssap30zd--ibcW4NNl-8">
          <mxGeometry width="160" relative="1" as="geometry">
            <mxPoint x="435" y="690" as="sourcePoint" />
            <mxPoint x="337" y="713" as="targetPoint" />
          </mxGeometry>
        </mxCell>
        <mxCell id="uEssap30zd--ibcW4NNl-25" value="Extends" style="endArrow=open;endSize=12;dashed=1;html=1;rounded=0;" edge="1" parent="uEssap30zd--ibcW4NNl-1" source="uEssap30zd--ibcW4NNl-21" target="uEssap30zd--ibcW4NNl-8">
          <mxGeometry width="160" relative="1" as="geometry">
            <mxPoint x="420" y="820" as="sourcePoint" />
            <mxPoint x="256" y="811" as="targetPoint" />
          </mxGeometry>
        </mxCell>
        <mxCell id="uEssap30zd--ibcW4NNl-26" value="View bucket lists" style="ellipse;whiteSpace=wrap;html=1;" vertex="1" parent="uEssap30zd--ibcW4NNl-1">
          <mxGeometry x="226.5" y="830" width="96" height="60" as="geometry" />
        </mxCell>
        <mxCell id="uEssap30zd--ibcW4NNl-27" value="Includes" style="endArrow=open;endSize=12;dashed=1;html=1;rounded=0;" edge="1" parent="uEssap30zd--ibcW4NNl-1" source="uEssap30zd--ibcW4NNl-26" target="uEssap30zd--ibcW4NNl-8">
          <mxGeometry width="160" relative="1" as="geometry">
            <mxPoint x="360" y="620" as="sourcePoint" />
            <mxPoint x="520" y="620" as="targetPoint" />
          </mxGeometry>
        </mxCell>
        <mxCell id="uEssap30zd--ibcW4NNl-28" value="Create new bucket list" style="ellipse;whiteSpace=wrap;html=1;" vertex="1" parent="uEssap30zd--ibcW4NNl-1">
          <mxGeometry x="232" y="965" width="85" height="50" as="geometry" />
        </mxCell>
        <mxCell id="uEssap30zd--ibcW4NNl-29" value="Delete bucket list" style="ellipse;whiteSpace=wrap;html=1;" vertex="1" parent="uEssap30zd--ibcW4NNl-1">
          <mxGeometry x="380" y="910" width="90" height="50" as="geometry" />
        </mxCell>
        <mxCell id="uEssap30zd--ibcW4NNl-30" value="Extends" style="endArrow=open;endSize=12;dashed=1;html=1;rounded=0;" edge="1" parent="uEssap30zd--ibcW4NNl-1" source="uEssap30zd--ibcW4NNl-28" target="uEssap30zd--ibcW4NNl-26">
          <mxGeometry width="160" relative="1" as="geometry">
            <mxPoint x="502" y="908" as="sourcePoint" />
            <mxPoint x="250" y="910" as="targetPoint" />
          </mxGeometry>
        </mxCell>
        <mxCell id="uEssap30zd--ibcW4NNl-31" value="Extends" style="endArrow=open;endSize=12;dashed=1;html=1;rounded=0;entryX=1;entryY=1;entryDx=0;entryDy=0;" edge="1" parent="uEssap30zd--ibcW4NNl-1" source="uEssap30zd--ibcW4NNl-29" target="uEssap30zd--ibcW4NNl-26">
          <mxGeometry width="160" relative="1" as="geometry">
            <mxPoint x="439" y="992" as="sourcePoint" />
            <mxPoint x="371" y="910" as="targetPoint" />
          </mxGeometry>
        </mxCell>
        <mxCell id="uEssap30zd--ibcW4NNl-32" value="Extends" style="endArrow=open;endSize=12;dashed=1;html=1;rounded=0;" edge="1" parent="uEssap30zd--ibcW4NNl-1" source="uEssap30zd--ibcW4NNl-38" target="uEssap30zd--ibcW4NNl-44">
          <mxGeometry width="160" relative="1" as="geometry">
            <mxPoint x="500" y="1280" as="sourcePoint" />
            <mxPoint x="310" y="1180" as="targetPoint" />
          </mxGeometry>
        </mxCell>
        <mxCell id="uEssap30zd--ibcW4NNl-33" value="View public destinations list" style="ellipse;whiteSpace=wrap;html=1;" vertex="1" parent="uEssap30zd--ibcW4NNl-1">
          <mxGeometry x="440" y="1030" width="95" height="60" as="geometry" />
        </mxCell>
        <mxCell id="uEssap30zd--ibcW4NNl-34" value="View destinations list" style="ellipse;whiteSpace=wrap;html=1;" vertex="1" parent="uEssap30zd--ibcW4NNl-1">
          <mxGeometry x="670" y="870" width="90" height="60" as="geometry" />
        </mxCell>
        <mxCell id="uEssap30zd--ibcW4NNl-35" value="View private destinations list" style="ellipse;whiteSpace=wrap;html=1;" vertex="1" parent="uEssap30zd--ibcW4NNl-1">
          <mxGeometry x="450" y="1180" width="100" height="60" as="geometry" />
        </mxCell>
        <mxCell id="uEssap30zd--ibcW4NNl-36" value="" style="endArrow=none;html=1;rounded=0;entryX=0.958;entryY=0.183;entryDx=0;entryDy=0;entryPerimeter=0;" edge="1" parent="uEssap30zd--ibcW4NNl-1" source="uEssap30zd--ibcW4NNl-34" target="uEssap30zd--ibcW4NNl-33">
          <mxGeometry width="50" height="50" relative="1" as="geometry">
            <mxPoint x="672.8839062510941" y="790.660756106083" as="sourcePoint" />
            <mxPoint x="670.12" y="879.5" as="targetPoint" />
          </mxGeometry>
        </mxCell>
        <mxCell id="uEssap30zd--ibcW4NNl-37" value="" style="endArrow=none;html=1;rounded=0;" edge="1" parent="uEssap30zd--ibcW4NNl-1" source="uEssap30zd--ibcW4NNl-34" target="uEssap30zd--ibcW4NNl-35">
          <mxGeometry width="50" height="50" relative="1" as="geometry">
            <mxPoint x="667.5009707972287" y="816.7021358881234" as="sourcePoint" />
            <mxPoint x="724.9421403327675" y="842.14317348123" as="targetPoint" />
          </mxGeometry>
        </mxCell>
        <mxCell id="uEssap30zd--ibcW4NNl-38" value="Add destination to bucket list" style="ellipse;whiteSpace=wrap;html=1;" vertex="1" parent="uEssap30zd--ibcW4NNl-1">
          <mxGeometry x="260" y="1070" width="92.5" height="60" as="geometry" />
        </mxCell>
        <mxCell id="uEssap30zd--ibcW4NNl-39" value="Update bucket list" style="ellipse;whiteSpace=wrap;html=1;" vertex="1" parent="uEssap30zd--ibcW4NNl-1">
          <mxGeometry x="-80" y="990" width="90" height="70" as="geometry" />
        </mxCell>
        <mxCell id="uEssap30zd--ibcW4NNl-40" value="Extends" style="endArrow=open;endSize=12;dashed=1;html=1;rounded=0;exitX=1;exitY=0;exitDx=0;exitDy=0;entryX=0.033;entryY=0.74;entryDx=0;entryDy=0;entryPerimeter=0;" edge="1" parent="uEssap30zd--ibcW4NNl-1" source="uEssap30zd--ibcW4NNl-39" target="uEssap30zd--ibcW4NNl-26">
          <mxGeometry width="160" relative="1" as="geometry">
            <mxPoint x="483" y="1165" as="sourcePoint" />
            <mxPoint x="70" y="970" as="targetPoint" />
          </mxGeometry>
        </mxCell>
        <mxCell id="uEssap30zd--ibcW4NNl-41" value="Delete destination from bucket list" style="ellipse;whiteSpace=wrap;html=1;" vertex="1" parent="uEssap30zd--ibcW4NNl-1">
          <mxGeometry x="-20" y="1110" width="95" height="60" as="geometry" />
        </mxCell>
        <mxCell id="uEssap30zd--ibcW4NNl-42" value="Extends" style="endArrow=open;endSize=12;dashed=1;html=1;rounded=0;entryX=0.933;entryY=0.74;entryDx=0;entryDy=0;entryPerimeter=0;" edge="1" parent="uEssap30zd--ibcW4NNl-1" source="uEssap30zd--ibcW4NNl-38" target="uEssap30zd--ibcW4NNl-51">
          <mxGeometry width="160" relative="1" as="geometry">
            <mxPoint x="390" y="1123" as="sourcePoint" />
            <mxPoint x="338" y="1067" as="targetPoint" />
          </mxGeometry>
        </mxCell>
        <mxCell id="uEssap30zd--ibcW4NNl-43" value="Update private destination" style="ellipse;whiteSpace=wrap;html=1;" vertex="1" parent="uEssap30zd--ibcW4NNl-1">
          <mxGeometry x="680" y="1260" width="90" height="60" as="geometry" />
        </mxCell>
        <mxCell id="uEssap30zd--ibcW4NNl-44" value="Create private destination" style="ellipse;whiteSpace=wrap;html=1;" vertex="1" parent="uEssap30zd--ibcW4NNl-1">
          <mxGeometry x="260" y="1250" width="90" height="60" as="geometry" />
        </mxCell>
        <mxCell id="uEssap30zd--ibcW4NNl-45" value="Includes" style="endArrow=open;endSize=12;dashed=1;html=1;rounded=0;" edge="1" parent="uEssap30zd--ibcW4NNl-1" source="uEssap30zd--ibcW4NNl-34" target="uEssap30zd--ibcW4NNl-8">
          <mxGeometry x="-0.3221" y="-1" width="160" relative="1" as="geometry">
            <mxPoint x="503" y="851" as="sourcePoint" />
            <mxPoint x="505" y="930" as="targetPoint" />
            <mxPoint as="offset" />
          </mxGeometry>
        </mxCell>
        <mxCell id="uEssap30zd--ibcW4NNl-46" value="Delete private destination" style="ellipse;whiteSpace=wrap;html=1;" vertex="1" parent="uEssap30zd--ibcW4NNl-1">
          <mxGeometry x="710" y="1120" width="90" height="60" as="geometry" />
        </mxCell>
        <mxCell id="uEssap30zd--ibcW4NNl-47" value="Extends" style="endArrow=open;endSize=12;dashed=1;html=1;rounded=0;entryX=0.189;entryY=1;entryDx=0;entryDy=0;entryPerimeter=0;" edge="1" parent="uEssap30zd--ibcW4NNl-1" source="uEssap30zd--ibcW4NNl-41" target="uEssap30zd--ibcW4NNl-51">
          <mxGeometry width="160" relative="1" as="geometry">
            <mxPoint x="20" y="1080" as="sourcePoint" />
            <mxPoint x="296" y="1097" as="targetPoint" />
          </mxGeometry>
        </mxCell>
        <mxCell id="uEssap30zd--ibcW4NNl-48" value="Extends" style="endArrow=open;endSize=12;dashed=1;html=1;rounded=0;" edge="1" parent="uEssap30zd--ibcW4NNl-1" source="uEssap30zd--ibcW4NNl-44" target="uEssap30zd--ibcW4NNl-35">
          <mxGeometry x="-0.3221" y="-1" width="160" relative="1" as="geometry">
            <mxPoint x="580" y="820" as="sourcePoint" />
            <mxPoint x="510" y="860" as="targetPoint" />
            <mxPoint as="offset" />
          </mxGeometry>
        </mxCell>
        <mxCell id="uEssap30zd--ibcW4NNl-49" value="Extends" style="endArrow=open;endSize=12;dashed=1;html=1;rounded=0;exitX=0;exitY=0.5;exitDx=0;exitDy=0;" edge="1" parent="uEssap30zd--ibcW4NNl-1" source="uEssap30zd--ibcW4NNl-46" target="uEssap30zd--ibcW4NNl-35">
          <mxGeometry x="-0.3221" y="-1" width="160" relative="1" as="geometry">
            <mxPoint x="522" y="981" as="sourcePoint" />
            <mxPoint x="478" y="889" as="targetPoint" />
            <mxPoint as="offset" />
          </mxGeometry>
        </mxCell>
        <mxCell id="uEssap30zd--ibcW4NNl-50" value="Includes" style="endArrow=open;endSize=12;dashed=1;html=1;rounded=0;exitX=0;exitY=0;exitDx=0;exitDy=0;" edge="1" parent="uEssap30zd--ibcW4NNl-1" source="uEssap30zd--ibcW4NNl-43" target="uEssap30zd--ibcW4NNl-35">
          <mxGeometry x="-0.3272" y="-1" width="160" relative="1" as="geometry">
            <mxPoint x="650" y="910" as="sourcePoint" />
            <mxPoint x="494" y="883" as="targetPoint" />
            <mxPoint as="offset" />
          </mxGeometry>
        </mxCell>
        <mxCell id="uEssap30zd--ibcW4NNl-51" value="View specific bucket list" style="ellipse;whiteSpace=wrap;html=1;" vertex="1" parent="uEssap30zd--ibcW4NNl-1">
          <mxGeometry x="85" y="1010" width="90" height="50" as="geometry" />
        </mxCell>
        <mxCell id="uEssap30zd--ibcW4NNl-52" value="Extends" style="endArrow=open;endSize=12;dashed=1;html=1;rounded=0;" edge="1" parent="uEssap30zd--ibcW4NNl-1" source="uEssap30zd--ibcW4NNl-51" target="uEssap30zd--ibcW4NNl-26">
          <mxGeometry width="160" relative="1" as="geometry">
            <mxPoint x="453" y="1180" as="sourcePoint" />
            <mxPoint x="250" y="860" as="targetPoint" />
          </mxGeometry>
        </mxCell>
        <mxCell id="uEssap30zd--ibcW4NNl-53" value="" style="endArrow=none;html=1;rounded=0;entryX=0.5;entryY=1;entryDx=0;entryDy=0;exitX=1.013;exitY=0.3;exitDx=0;exitDy=0;exitPerimeter=0;" edge="1" parent="uEssap30zd--ibcW4NNl-1" source="uEssap30zd--ibcW4NNl-9" target="uEssap30zd--ibcW4NNl-14">
          <mxGeometry width="50" height="50" relative="1" as="geometry">
            <mxPoint x="150" y="345" as="sourcePoint" />
            <mxPoint x="650" y="520" as="targetPoint" />
            <Array as="points">
              <mxPoint x="470" y="570" />
            </Array>
          </mxGeometry>
        </mxCell>
        <mxCell id="uEssap30zd--ibcW4NNl-54" value="" style="endArrow=none;html=1;rounded=0;" edge="1" parent="uEssap30zd--ibcW4NNl-1" source="uEssap30zd--ibcW4NNl-26" target="uEssap30zd--ibcW4NNl-14">
          <mxGeometry width="50" height="50" relative="1" as="geometry">
            <mxPoint x="280" y="860" as="sourcePoint" />
            <mxPoint x="440" y="780" as="targetPoint" />
            <Array as="points" />
          </mxGeometry>
        </mxCell>
        <mxCell id="uEssap30zd--ibcW4NNl-55" value="" style="endArrow=none;html=1;rounded=0;entryX=0.442;entryY=1;entryDx=0;entryDy=0;entryPerimeter=0;" edge="1" parent="uEssap30zd--ibcW4NNl-1" source="uEssap30zd--ibcW4NNl-4" target="uEssap30zd--ibcW4NNl-14">
          <mxGeometry width="50" height="50" relative="1" as="geometry">
            <mxPoint x="219" y="478" as="sourcePoint" />
            <mxPoint x="340" y="540" as="targetPoint" />
            <Array as="points">
              <mxPoint x="690" y="470" />
            </Array>
          </mxGeometry>
        </mxCell>
        <mxCell id="uEssap30zd--ibcW4NNl-56" value="" style="endArrow=none;html=1;rounded=0;entryX=0.25;entryY=1;entryDx=0;entryDy=0;" edge="1" parent="uEssap30zd--ibcW4NNl-1" source="uEssap30zd--ibcW4NNl-7" target="uEssap30zd--ibcW4NNl-14">
          <mxGeometry width="50" height="50" relative="1" as="geometry">
            <mxPoint x="375" y="360" as="sourcePoint" />
            <mxPoint x="460" y="390" as="targetPoint" />
            <Array as="points">
              <mxPoint x="380" y="410" />
              <mxPoint x="780" y="450" />
            </Array>
          </mxGeometry>
        </mxCell>
        <mxCell id="uEssap30zd--ibcW4NNl-57" value="Update public destination" style="ellipse;whiteSpace=wrap;html=1;" vertex="1" parent="uEssap30zd--ibcW4NNl-1">
          <mxGeometry x="383" y="140" width="100" height="60" as="geometry" />
        </mxCell>
        <mxCell id="uEssap30zd--ibcW4NNl-58" value="Extends" style="endArrow=open;endSize=12;dashed=1;html=1;rounded=0;entryX=0.7;entryY=0.05;entryDx=0;entryDy=0;entryPerimeter=0;" edge="1" parent="uEssap30zd--ibcW4NNl-1" source="uEssap30zd--ibcW4NNl-57" target="uEssap30zd--ibcW4NNl-7">
          <mxGeometry x="0.0016" width="160" relative="1" as="geometry">
            <mxPoint x="515" y="357" as="sourcePoint" />
            <mxPoint x="425" y="333" as="targetPoint" />
            <mxPoint as="offset" />
          </mxGeometry>
        </mxCell>
        <mxCell id="uEssap30zd--ibcW4NNl-59" value="Extends" style="endArrow=open;endSize=12;dashed=1;html=1;rounded=0;entryX=0;entryY=0;entryDx=0;entryDy=0;" edge="1" parent="uEssap30zd--ibcW4NNl-1" source="uEssap30zd--ibcW4NNl-38" target="uEssap30zd--ibcW4NNl-35">
          <mxGeometry width="160" relative="1" as="geometry">
            <mxPoint x="320" y="1310" as="sourcePoint" />
            <mxPoint x="520" y="1280" as="targetPoint" />
          </mxGeometry>
        </mxCell>
        <mxCell id="uEssap30zd--ibcW4NNl-60" value="Extends" style="endArrow=open;endSize=12;dashed=1;html=1;rounded=0;entryX=0;entryY=0.5;entryDx=0;entryDy=0;" edge="1" parent="uEssap30zd--ibcW4NNl-1" source="uEssap30zd--ibcW4NNl-38" target="uEssap30zd--ibcW4NNl-33">
          <mxGeometry width="160" relative="1" as="geometry">
            <mxPoint x="545" y="1189" as="sourcePoint" />
            <mxPoint x="384.0298459398805" y="1242.814505800171" as="targetPoint" />
          </mxGeometry>
        </mxCell>
        <mxCell id="uEssap30zd--ibcW4NNl-61" value="" style="endArrow=none;html=1;rounded=0;" edge="1" parent="uEssap30zd--ibcW4NNl-1" source="uEssap30zd--ibcW4NNl-8" target="uEssap30zd--ibcW4NNl-14">
          <mxGeometry width="50" height="50" relative="1" as="geometry">
            <mxPoint x="200" y="690" as="sourcePoint" />
            <mxPoint x="1100" y="600" as="targetPoint" />
            <Array as="points">
              <mxPoint x="310" y="640" />
              <mxPoint x="480" y="580" />
            </Array>
          </mxGeometry>
        </mxCell>
        <mxCell id="uEssap30zd--ibcW4NNl-62" value="Delete bucket list" style="ellipse;whiteSpace=wrap;html=1;" vertex="1" parent="uEssap30zd--ibcW4NNl-1">
          <mxGeometry x="-90" y="900" width="90" height="70" as="geometry" />
        </mxCell>
        <mxCell id="uEssap30zd--ibcW4NNl-63" value="Extends" style="endArrow=open;endSize=12;dashed=1;html=1;rounded=0;entryX=0;entryY=0.5;entryDx=0;entryDy=0;" edge="1" parent="uEssap30zd--ibcW4NNl-1" source="uEssap30zd--ibcW4NNl-62" target="uEssap30zd--ibcW4NNl-26">
          <mxGeometry width="160" relative="1" as="geometry">
            <mxPoint x="20" y="1327" as="sourcePoint" />
            <mxPoint x="60" y="960" as="targetPoint" />
          </mxGeometry>
        </mxCell>
        <mxCell id="uEssap30zd--ibcW4NNl-64" value="" style="endArrow=none;html=1;rounded=0;" edge="1" parent="uEssap30zd--ibcW4NNl-1" source="uEssap30zd--ibcW4NNl-34" target="uEssap30zd--ibcW4NNl-14">
          <mxGeometry width="50" height="50" relative="1" as="geometry">
            <mxPoint x="327" y="856" as="sourcePoint" />
            <mxPoint x="1100" y="610" as="targetPoint" />
            <Array as="points" />
          </mxGeometry>
        </mxCell>
      </root>
    </mxGraphModel>
  </diagram>
  <diagram id="BYFGH3qq2lVcdCLPBvN4" name="layers">
    <mxGraphModel grid="1" page="1" gridSize="10" guides="1" tooltips="1" connect="1" arrows="1" fold="1" pageScale="1" pageWidth="850" pageHeight="1100" math="0" shadow="0">
      <root>
        <mxCell id="0" />
        <mxCell id="1" parent="0" />
        <mxCell id="URQx8xAng6HdbwSH59UL-6" value="" style="group" connectable="0" vertex="1" parent="1">
          <mxGeometry x="-650" y="-780" width="1300" height="1660" as="geometry" />
        </mxCell>
        <mxCell id="URQx8xAng6HdbwSH59UL-4" value="" style="rounded=0;whiteSpace=wrap;html=1;" vertex="1" parent="URQx8xAng6HdbwSH59UL-6">
          <mxGeometry y="368.88888888888897" width="1300" height="1291.111111111111" as="geometry" />
        </mxCell>
        <mxCell id="URQx8xAng6HdbwSH59UL-5" value="&lt;span style=&quot;font-size: 36px;&quot;&gt;Interface&lt;/span&gt;" style="shape=trapezoid;perimeter=trapezoidPerimeter;whiteSpace=wrap;html=1;fixedSize=1;" vertex="1" parent="URQx8xAng6HdbwSH59UL-6">
          <mxGeometry y="257.36434108527135" width="529.628813559322" height="111.51596899224808" as="geometry" />
        </mxCell>
        <mxCell id="Impy2w_l1AEBGiZUx3CQ-2" value="" style="group" connectable="0" vertex="1" parent="URQx8xAng6HdbwSH59UL-6">
          <mxGeometry y="424.65116279069775" width="1300" height="1235.3488372093025" as="geometry" />
        </mxCell>
        <mxCell id="Impy2w_l1AEBGiZUx3CQ-3" value="" style="rounded=0;whiteSpace=wrap;html=1;" vertex="1" parent="Impy2w_l1AEBGiZUx3CQ-2">
          <mxGeometry y="275.52196382428946" width="1300" height="960.826873385013" as="geometry" />
        </mxCell>
        <mxCell id="Impy2w_l1AEBGiZUx3CQ-4" value="&lt;span style=&quot;font-size: 36px;&quot;&gt;Application Logic&lt;/span&gt;" style="shape=trapezoid;perimeter=trapezoidPerimeter;whiteSpace=wrap;html=1;fixedSize=1;" vertex="1" parent="Impy2w_l1AEBGiZUx3CQ-2">
          <mxGeometry y="191.5269515053182" width="529.628813559322" height="82.9886280872544" as="geometry" />
        </mxCell>
        <mxCell id="Impy2w_l1AEBGiZUx3CQ-5" value="" style="group" connectable="0" vertex="1" parent="Impy2w_l1AEBGiZUx3CQ-2">
          <mxGeometry x="539.8305084745763" y="398.91891833423483" width="330.50847457627117" height="128.68217054263567" as="geometry" />
        </mxCell>
        <mxCell id="Impy2w_l1AEBGiZUx3CQ-6" value="&lt;font style=&quot;font-size: 24px;&quot;&gt;Server&lt;/font&gt;" style="rounded=0;whiteSpace=wrap;html=1;" vertex="1" parent="Impy2w_l1AEBGiZUx3CQ-5">
          <mxGeometry y="28.596037898363488" width="330.50847457627117" height="100.0861326442722" as="geometry" />
        </mxCell>
        <mxCell id="Impy2w_l1AEBGiZUx3CQ-7" value="" style="shape=trapezoid;perimeter=trapezoidPerimeter;whiteSpace=wrap;html=1;fixedSize=1;" vertex="1" parent="Impy2w_l1AEBGiZUx3CQ-5">
          <mxGeometry y="-19.212962962962962" width="134.65160075329567" height="47.80185185185185" as="geometry" />
        </mxCell>
        <mxCell id="Impy2w_l1AEBGiZUx3CQ-12" value="" style="group" connectable="0" vertex="1" parent="Impy2w_l1AEBGiZUx3CQ-2">
          <mxGeometry x="50.00474576271186" y="545.3457400396611" width="330.50847457627117" height="128.68217054263567" as="geometry" />
        </mxCell>
        <mxCell id="Impy2w_l1AEBGiZUx3CQ-13" value="&lt;font style=&quot;font-size: 24px;&quot;&gt;Authentication&lt;/font&gt;" style="rounded=0;whiteSpace=wrap;html=1;" vertex="1" parent="Impy2w_l1AEBGiZUx3CQ-12">
          <mxGeometry y="28.596037898363488" width="330.50847457627117" height="100.0861326442722" as="geometry" />
        </mxCell>
        <mxCell id="Impy2w_l1AEBGiZUx3CQ-14" value="" style="shape=trapezoid;perimeter=trapezoidPerimeter;whiteSpace=wrap;html=1;fixedSize=1;" vertex="1" parent="Impy2w_l1AEBGiZUx3CQ-12">
          <mxGeometry y="-19.212962962962962" width="134.65160075329567" height="47.80185185185185" as="geometry" />
        </mxCell>
        <mxCell id="Impy2w_l1AEBGiZUx3CQ-15" value="" style="group" connectable="0" vertex="1" parent="Impy2w_l1AEBGiZUx3CQ-2">
          <mxGeometry x="910.0005084745762" y="604.8062015503878" width="330.50847457627117" height="128.68217054263567" as="geometry" />
        </mxCell>
        <mxCell id="Impy2w_l1AEBGiZUx3CQ-16" value="&lt;font style=&quot;font-size: 24px;&quot;&gt;DestinationManagement&lt;/font&gt;" style="rounded=0;whiteSpace=wrap;html=1;" vertex="1" parent="Impy2w_l1AEBGiZUx3CQ-15">
          <mxGeometry y="28.596037898363488" width="330.50847457627117" height="100.0861326442722" as="geometry" />
        </mxCell>
        <mxCell id="Impy2w_l1AEBGiZUx3CQ-17" value="" style="shape=trapezoid;perimeter=trapezoidPerimeter;whiteSpace=wrap;html=1;fixedSize=1;" vertex="1" parent="Impy2w_l1AEBGiZUx3CQ-15">
          <mxGeometry y="-19.212962962962962" width="134.65160075329567" height="47.80185185185185" as="geometry" />
        </mxCell>
        <mxCell id="Impy2w_l1AEBGiZUx3CQ-19" value="" style="group" connectable="0" vertex="1" parent="Impy2w_l1AEBGiZUx3CQ-2">
          <mxGeometry x="680.0005084745762" y="835.3458914728683" width="330.50847457627117" height="128.68217054263567" as="geometry" />
        </mxCell>
        <mxCell id="Impy2w_l1AEBGiZUx3CQ-20" value="&lt;span style=&quot;font-size: 24px;&quot;&gt;BucketListsManagement&lt;/span&gt;" style="rounded=0;whiteSpace=wrap;html=1;" vertex="1" parent="Impy2w_l1AEBGiZUx3CQ-19">
          <mxGeometry y="28.596037898363488" width="330.50847457627117" height="100.0861326442722" as="geometry" />
        </mxCell>
        <mxCell id="Impy2w_l1AEBGiZUx3CQ-21" value="" style="shape=trapezoid;perimeter=trapezoidPerimeter;whiteSpace=wrap;html=1;fixedSize=1;" vertex="1" parent="Impy2w_l1AEBGiZUx3CQ-19">
          <mxGeometry y="-19.212962962962962" width="134.65160075329567" height="47.80185185185185" as="geometry" />
        </mxCell>
        <mxCell id="Impy2w_l1AEBGiZUx3CQ-22" value="" style="group" connectable="0" vertex="1" parent="Impy2w_l1AEBGiZUx3CQ-2">
          <mxGeometry x="320" y="975.3499999999999" width="350.51" height="128.68" as="geometry" />
        </mxCell>
        <mxCell id="Impy2w_l1AEBGiZUx3CQ-23" value="&lt;span style=&quot;font-size: 24px;&quot;&gt;SpecifficBucketListManagement&lt;/span&gt;" style="rounded=0;whiteSpace=wrap;html=1;" vertex="1" parent="Impy2w_l1AEBGiZUx3CQ-22">
          <mxGeometry y="28.59555555555556" width="350.51" height="100.08444444444446" as="geometry" />
        </mxCell>
        <mxCell id="Impy2w_l1AEBGiZUx3CQ-24" value="" style="shape=trapezoid;perimeter=trapezoidPerimeter;whiteSpace=wrap;html=1;fixedSize=1;" vertex="1" parent="Impy2w_l1AEBGiZUx3CQ-22">
          <mxGeometry y="-19.212638888888886" width="142.80037037037036" height="47.80104555555555" as="geometry" />
        </mxCell>
        <mxCell id="x68daZlwNNaPNwTrfrSN-2" value="&lt;span style=&quot;font-size: 36px;&quot;&gt;Storage&lt;/span&gt;" style="shape=trapezoid;perimeter=trapezoidPerimeter;whiteSpace=wrap;html=1;fixedSize=1;" vertex="1" parent="Impy2w_l1AEBGiZUx3CQ-2">
          <mxGeometry y="1152.3569515053182" width="529.628813559322" height="82.9886280872544" as="geometry" />
        </mxCell>
        <mxCell id="MrldlPMolBvqvZT6TOo8-3" value="" style="endArrow=open;endSize=12;dashed=1;html=1;rounded=0;strokeWidth=4;" edge="1" parent="Impy2w_l1AEBGiZUx3CQ-2" source="Impy2w_l1AEBGiZUx3CQ-6" target="Impy2w_l1AEBGiZUx3CQ-13">
          <mxGeometry x="0.0016" width="160" relative="1" as="geometry">
            <mxPoint x="671" y="134.34883720930225" as="sourcePoint" />
            <mxPoint x="709" y="437.34883720930225" as="targetPoint" />
            <mxPoint as="offset" />
          </mxGeometry>
        </mxCell>
        <mxCell id="MrldlPMolBvqvZT6TOo8-4" value="" style="endArrow=open;endSize=12;dashed=1;html=1;rounded=0;strokeWidth=4;" edge="1" parent="Impy2w_l1AEBGiZUx3CQ-2" source="Impy2w_l1AEBGiZUx3CQ-6" target="Impy2w_l1AEBGiZUx3CQ-10">
          <mxGeometry x="0.0016" width="160" relative="1" as="geometry">
            <mxPoint x="681" y="144.34883720930225" as="sourcePoint" />
            <mxPoint x="719" y="447.34883720930225" as="targetPoint" />
            <mxPoint as="offset" />
          </mxGeometry>
        </mxCell>
        <mxCell id="MrldlPMolBvqvZT6TOo8-5" value="" style="endArrow=open;endSize=12;dashed=1;html=1;rounded=0;strokeWidth=4;exitX=0.5;exitY=1;exitDx=0;exitDy=0;" edge="1" parent="Impy2w_l1AEBGiZUx3CQ-2" source="Impy2w_l1AEBGiZUx3CQ-6" target="Impy2w_l1AEBGiZUx3CQ-20">
          <mxGeometry x="0.0016" width="160" relative="1" as="geometry">
            <mxPoint x="691" y="154.34883720930225" as="sourcePoint" />
            <mxPoint x="729" y="457.34883720930225" as="targetPoint" />
            <mxPoint as="offset" />
          </mxGeometry>
        </mxCell>
        <mxCell id="MrldlPMolBvqvZT6TOo8-6" value="" style="endArrow=open;endSize=12;dashed=1;html=1;rounded=0;strokeWidth=4;entryX=0;entryY=0.5;entryDx=0;entryDy=0;" edge="1" parent="Impy2w_l1AEBGiZUx3CQ-2" source="Impy2w_l1AEBGiZUx3CQ-6" target="Impy2w_l1AEBGiZUx3CQ-16">
          <mxGeometry x="0.0016" width="160" relative="1" as="geometry">
            <mxPoint x="701" y="164.34883720930225" as="sourcePoint" />
            <mxPoint x="739" y="467.34883720930225" as="targetPoint" />
            <mxPoint as="offset" />
          </mxGeometry>
        </mxCell>
        <mxCell id="MrldlPMolBvqvZT6TOo8-7" value="" style="endArrow=open;endSize=12;dashed=1;html=1;rounded=0;strokeWidth=4;" edge="1" parent="Impy2w_l1AEBGiZUx3CQ-2" source="Impy2w_l1AEBGiZUx3CQ-6" target="Impy2w_l1AEBGiZUx3CQ-23">
          <mxGeometry x="0.0016" width="160" relative="1" as="geometry">
            <mxPoint x="711" y="174.34883720930225" as="sourcePoint" />
            <mxPoint x="749" y="477.34883720930225" as="targetPoint" />
            <mxPoint as="offset" />
          </mxGeometry>
        </mxCell>
        <mxCell id="MrldlPMolBvqvZT6TOo8-11" value="" style="endArrow=open;endSize=12;dashed=1;html=1;rounded=0;strokeWidth=4;" edge="1" parent="Impy2w_l1AEBGiZUx3CQ-2">
          <mxGeometry x="0.0016" width="160" relative="1" as="geometry">
            <mxPoint x="922" y="565.3488372093022" as="sourcePoint" />
            <mxPoint x="910" y="636.3488372093022" as="targetPoint" />
            <mxPoint as="offset" />
          </mxGeometry>
        </mxCell>
        <mxCell id="Impy2w_l1AEBGiZUx3CQ-9" value="" style="group" connectable="0" vertex="1" parent="Impy2w_l1AEBGiZUx3CQ-2">
          <mxGeometry x="159.99593220338983" y="755.3500811249326" width="330.50847457627117" height="128.68217054263567" as="geometry" />
        </mxCell>
        <mxCell id="Impy2w_l1AEBGiZUx3CQ-10" value="&lt;font style=&quot;font-size: 24px;&quot;&gt;UserProfile&lt;/font&gt;" style="rounded=0;whiteSpace=wrap;html=1;" vertex="1" parent="Impy2w_l1AEBGiZUx3CQ-9">
          <mxGeometry y="28.596037898363488" width="330.50847457627117" height="100.0861326442722" as="geometry" />
        </mxCell>
        <mxCell id="Impy2w_l1AEBGiZUx3CQ-11" value="" style="shape=trapezoid;perimeter=trapezoidPerimeter;whiteSpace=wrap;html=1;fixedSize=1;" vertex="1" parent="Impy2w_l1AEBGiZUx3CQ-9">
          <mxGeometry y="-19.212962962962962" width="134.65160075329567" height="47.80185185185185" as="geometry" />
        </mxCell>
        <mxCell id="URQx8xAng6HdbwSH59UL-12" value="" style="group" connectable="0" vertex="1" parent="URQx8xAng6HdbwSH59UL-6">
          <mxGeometry x="489.99576271186436" y="419.9993798449613" width="330.50847457627117" height="128.68217054263567" as="geometry" />
        </mxCell>
        <mxCell id="URQx8xAng6HdbwSH59UL-13" value="&lt;font style=&quot;font-size: 24px;&quot;&gt;Client&lt;/font&gt;" style="rounded=0;whiteSpace=wrap;html=1;" vertex="1" parent="URQx8xAng6HdbwSH59UL-12">
          <mxGeometry y="28.59603789836348" width="330.50847457627117" height="100.0861326442722" as="geometry" />
        </mxCell>
        <mxCell id="URQx8xAng6HdbwSH59UL-14" value="" style="shape=trapezoid;perimeter=trapezoidPerimeter;whiteSpace=wrap;html=1;fixedSize=1;" vertex="1" parent="URQx8xAng6HdbwSH59UL-12">
          <mxGeometry y="-14.29801894918174" width="134.65160075329567" height="42.89405684754522" as="geometry" />
        </mxCell>
        <mxCell id="MrldlPMolBvqvZT6TOo8-1" value="" style="endArrow=open;endSize=12;dashed=1;html=1;rounded=0;strokeWidth=4;" edge="1" parent="URQx8xAng6HdbwSH59UL-6" source="URQx8xAng6HdbwSH59UL-13" target="Impy2w_l1AEBGiZUx3CQ-6">
          <mxGeometry x="0.0016" width="160" relative="1" as="geometry">
            <mxPoint x="1004" y="742" as="sourcePoint" />
            <mxPoint x="880" y="720" as="targetPoint" />
            <mxPoint as="offset" />
          </mxGeometry>
        </mxCell>
        <mxCell id="x68daZlwNNaPNwTrfrSN-1" value="" style="rounded=0;whiteSpace=wrap;html=1;" vertex="1" parent="1">
          <mxGeometry x="-650" y="880" width="1300" height="300" as="geometry" />
        </mxCell>
        <mxCell id="x68daZlwNNaPNwTrfrSN-3" value="" style="group" connectable="0" vertex="1" parent="1">
          <mxGeometry x="-49.99999999999997" y="965.6611627906976" width="350.51" height="128.68" as="geometry" />
        </mxCell>
        <mxCell id="x68daZlwNNaPNwTrfrSN-4" value="&lt;span style=&quot;font-size: 24px;&quot;&gt;Database&lt;/span&gt;" style="rounded=0;whiteSpace=wrap;html=1;" vertex="1" parent="x68daZlwNNaPNwTrfrSN-3">
          <mxGeometry y="28.59555555555556" width="350.51" height="100.08444444444446" as="geometry" />
        </mxCell>
        <mxCell id="x68daZlwNNaPNwTrfrSN-5" value="" style="shape=trapezoid;perimeter=trapezoidPerimeter;whiteSpace=wrap;html=1;fixedSize=1;" vertex="1" parent="x68daZlwNNaPNwTrfrSN-3">
          <mxGeometry y="-10" width="142.8" height="38.59" as="geometry" />
        </mxCell>
        <mxCell id="MrldlPMolBvqvZT6TOo8-8" value="" style="endArrow=open;endSize=12;dashed=1;html=1;rounded=0;strokeWidth=4;" edge="1" parent="1" source="Impy2w_l1AEBGiZUx3CQ-23" target="x68daZlwNNaPNwTrfrSN-4">
          <mxGeometry x="0.0016" width="160" relative="1" as="geometry">
            <mxPoint x="71" y="-171" as="sourcePoint" />
            <mxPoint x="109" y="132" as="targetPoint" />
            <mxPoint as="offset" />
          </mxGeometry>
        </mxCell>
        <mxCell id="MrldlPMolBvqvZT6TOo8-9" value="" style="endArrow=open;endSize=12;dashed=1;html=1;rounded=0;strokeWidth=4;" edge="1" parent="1" source="Impy2w_l1AEBGiZUx3CQ-20" target="x68daZlwNNaPNwTrfrSN-4">
          <mxGeometry x="0.0016" width="160" relative="1" as="geometry">
            <mxPoint x="81" y="-161" as="sourcePoint" />
            <mxPoint x="119" y="142" as="targetPoint" />
            <mxPoint as="offset" />
          </mxGeometry>
        </mxCell>
        <mxCell id="MrldlPMolBvqvZT6TOo8-12" value="" style="endArrow=open;endSize=12;dashed=1;html=1;rounded=0;strokeWidth=4;" edge="1" parent="1" source="Impy2w_l1AEBGiZUx3CQ-16" target="x68daZlwNNaPNwTrfrSN-4">
          <mxGeometry x="0.0016" width="160" relative="1" as="geometry">
            <mxPoint x="431" y="558.6800000000001" as="sourcePoint" />
            <mxPoint x="419" y="629.6800000000001" as="targetPoint" />
            <mxPoint as="offset" />
            <Array as="points">
              <mxPoint x="460" y="690" />
            </Array>
          </mxGeometry>
        </mxCell>
        <mxCell id="MrldlPMolBvqvZT6TOo8-13" value="" style="endArrow=open;endSize=12;dashed=1;html=1;rounded=0;strokeWidth=4;exitX=0.164;exitY=0.983;exitDx=0;exitDy=0;exitPerimeter=0;entryX=0;entryY=0.5;entryDx=0;entryDy=0;" edge="1" parent="1" source="Impy2w_l1AEBGiZUx3CQ-10" target="x68daZlwNNaPNwTrfrSN-4">
          <mxGeometry x="0.0016" width="160" relative="1" as="geometry">
            <mxPoint x="441" y="568.6800000000001" as="sourcePoint" />
            <mxPoint x="429" y="639.6800000000001" as="targetPoint" />
            <mxPoint as="offset" />
            <Array as="points">
              <mxPoint x="-490" y="910" />
            </Array>
          </mxGeometry>
        </mxCell>
        <mxCell id="MrldlPMolBvqvZT6TOo8-14" value="" style="endArrow=open;endSize=12;dashed=1;html=1;rounded=0;strokeWidth=4;exitX=0.088;exitY=0.983;exitDx=0;exitDy=0;exitPerimeter=0;entryX=-0.002;entryY=0.952;entryDx=0;entryDy=0;entryPerimeter=0;" edge="1" parent="1" source="Impy2w_l1AEBGiZUx3CQ-13" target="x68daZlwNNaPNwTrfrSN-4">
          <mxGeometry x="0.0016" width="160" relative="1" as="geometry">
            <mxPoint x="451" y="578.6800000000001" as="sourcePoint" />
            <mxPoint x="439" y="649.6800000000001" as="targetPoint" />
            <mxPoint as="offset" />
            <Array as="points">
              <mxPoint x="-560" y="960" />
            </Array>
          </mxGeometry>
        </mxCell>
      </root>
    </mxGraphModel>
  </diagram>
  <diagram id="7JPAC92r8RirGnJZE0ka" name="UML Component Diagram">
    <mxGraphModel grid="1" page="1" gridSize="10" guides="1" tooltips="1" connect="1" arrows="1" fold="1" pageScale="1" pageWidth="1100" pageHeight="850" math="0" shadow="0">
      <root>
        <mxCell id="0" />
        <mxCell id="1" parent="0" />
        <mxCell id="HCAYmL7yfOOF2TSIEVMN-8" value="Authentication" style="shape=module;align=left;spacingLeft=20;align=center;verticalAlign=top;whiteSpace=wrap;html=1;" vertex="1" parent="1">
          <mxGeometry x="300" y="470" width="130" height="50" as="geometry" />
        </mxCell>
        <mxCell id="HCAYmL7yfOOF2TSIEVMN-9" value="BucketLists&lt;br&gt;Management" style="shape=module;align=left;spacingLeft=20;align=center;verticalAlign=top;whiteSpace=wrap;html=1;" vertex="1" parent="1">
          <mxGeometry x="610" y="500" width="120" height="50" as="geometry" />
        </mxCell>
        <mxCell id="HCAYmL7yfOOF2TSIEVMN-10" value="SpecifficBucket&lt;br&gt;ListManagement" style="shape=module;align=left;spacingLeft=20;align=center;verticalAlign=top;whiteSpace=wrap;html=1;" vertex="1" parent="1">
          <mxGeometry x="490" y="650" width="130" height="55" as="geometry" />
        </mxCell>
        <mxCell id="HCAYmL7yfOOF2TSIEVMN-15" value="User" style="shape=umlActor;verticalLabelPosition=bottom;verticalAlign=top;html=1;" vertex="1" parent="1">
          <mxGeometry x="515" y="140" width="30" height="60" as="geometry" />
        </mxCell>
        <mxCell id="HCAYmL7yfOOF2TSIEVMN-16" value="UserInterface" style="shape=module;align=left;spacingLeft=20;align=center;verticalAlign=top;whiteSpace=wrap;html=1;" vertex="1" parent="1">
          <mxGeometry x="480" y="320" width="100" height="50" as="geometry" />
        </mxCell>
        <mxCell id="xj7wTzec7Jiz00tjzNQv-1" value="" style="endArrow=open;endSize=12;dashed=1;html=1;rounded=0;strokeWidth=2;" edge="1" parent="1" source="HCAYmL7yfOOF2TSIEVMN-15" target="HCAYmL7yfOOF2TSIEVMN-16">
          <mxGeometry x="0.0016" width="160" relative="1" as="geometry">
            <mxPoint x="-120" y="291.65116279069775" as="sourcePoint" />
            <mxPoint x="-279" y="339.65116279069775" as="targetPoint" />
            <mxPoint as="offset" />
          </mxGeometry>
        </mxCell>
        <mxCell id="xj7wTzec7Jiz00tjzNQv-2" value="" style="rounded=0;orthogonalLoop=1;jettySize=auto;html=1;endArrow=none;endFill=0;sketch=0;sourcePerimeterSpacing=0;targetPerimeterSpacing=0;" edge="1" parent="1" source="HCAYmL7yfOOF2TSIEVMN-8" target="xj7wTzec7Jiz00tjzNQv-4">
          <mxGeometry relative="1" as="geometry">
            <mxPoint x="440" y="445" as="sourcePoint" />
          </mxGeometry>
        </mxCell>
        <mxCell id="xj7wTzec7Jiz00tjzNQv-3" value="" style="rounded=0;orthogonalLoop=1;jettySize=auto;html=1;endArrow=halfCircle;endFill=0;entryX=0.5;entryY=0.5;endSize=6;strokeWidth=1;sketch=0;" edge="1" parent="1" source="HCAYmL7yfOOF2TSIEVMN-16" target="xj7wTzec7Jiz00tjzNQv-4">
          <mxGeometry relative="1" as="geometry">
            <mxPoint x="560" y="430" as="sourcePoint" />
          </mxGeometry>
        </mxCell>
        <mxCell id="xj7wTzec7Jiz00tjzNQv-4" value="" style="ellipse;whiteSpace=wrap;html=1;align=center;aspect=fixed;resizable=0;points=[];outlineConnect=0;sketch=0;rotation=-36;" vertex="1" parent="1">
          <mxGeometry x="440" y="420" width="10" height="10" as="geometry" />
        </mxCell>
        <mxCell id="xj7wTzec7Jiz00tjzNQv-14" value="" style="rounded=0;orthogonalLoop=1;jettySize=auto;html=1;endArrow=none;endFill=0;sketch=0;sourcePerimeterSpacing=0;targetPerimeterSpacing=0;" edge="1" parent="1" source="HCAYmL7yfOOF2TSIEVMN-9" target="xj7wTzec7Jiz00tjzNQv-16">
          <mxGeometry relative="1" as="geometry">
            <mxPoint x="404" y="480" as="sourcePoint" />
          </mxGeometry>
        </mxCell>
        <mxCell id="xj7wTzec7Jiz00tjzNQv-15" value="" style="rounded=0;orthogonalLoop=1;jettySize=auto;html=1;endArrow=halfCircle;endFill=0;entryX=0.5;entryY=0.5;endSize=6;strokeWidth=1;sketch=0;" edge="1" parent="1" source="HCAYmL7yfOOF2TSIEVMN-16" target="xj7wTzec7Jiz00tjzNQv-16">
          <mxGeometry relative="1" as="geometry">
            <mxPoint x="513" y="380" as="sourcePoint" />
          </mxGeometry>
        </mxCell>
        <mxCell id="xj7wTzec7Jiz00tjzNQv-16" value="" style="ellipse;whiteSpace=wrap;html=1;align=center;aspect=fixed;resizable=0;points=[];outlineConnect=0;sketch=0;rotation=-36;" vertex="1" parent="1">
          <mxGeometry x="610" y="440" width="10" height="10" as="geometry" />
        </mxCell>
        <mxCell id="xj7wTzec7Jiz00tjzNQv-17" value="" style="rounded=0;orthogonalLoop=1;jettySize=auto;html=1;endArrow=none;endFill=0;sketch=0;sourcePerimeterSpacing=0;targetPerimeterSpacing=0;" edge="1" parent="1" source="HCAYmL7yfOOF2TSIEVMN-9" target="xj7wTzec7Jiz00tjzNQv-19">
          <mxGeometry relative="1" as="geometry">
            <mxPoint x="414" y="490" as="sourcePoint" />
          </mxGeometry>
        </mxCell>
        <mxCell id="xj7wTzec7Jiz00tjzNQv-18" value="" style="rounded=0;orthogonalLoop=1;jettySize=auto;html=1;endArrow=halfCircle;endFill=0;entryX=0.5;entryY=0.5;endSize=6;strokeWidth=1;sketch=0;exitX=0.656;exitY=0.023;exitDx=0;exitDy=0;exitPerimeter=0;" edge="1" parent="1" source="HCAYmL7yfOOF2TSIEVMN-10" target="xj7wTzec7Jiz00tjzNQv-19">
          <mxGeometry relative="1" as="geometry">
            <mxPoint x="680" y="630" as="sourcePoint" />
          </mxGeometry>
        </mxCell>
        <mxCell id="xj7wTzec7Jiz00tjzNQv-19" value="" style="ellipse;whiteSpace=wrap;html=1;align=center;aspect=fixed;resizable=0;points=[];outlineConnect=0;sketch=0;rotation=-36;" vertex="1" parent="1">
          <mxGeometry x="620" y="600" width="10" height="10" as="geometry" />
        </mxCell>
      </root>
    </mxGraphModel>
  </diagram>
  <diagram id="s05Bqh0KIJ0Bp257MyLf" name="Class Diagram">
    <mxGraphModel grid="1" page="1" gridSize="10" guides="1" tooltips="1" connect="1" arrows="1" fold="1" pageScale="1" pageWidth="827" pageHeight="1169" math="0" shadow="0">
      <root>
        <mxCell id="0" />
        <mxCell id="1" parent="0" />
        <mxCell id="WyekG411s1SadjiJ9X-_-1" value="Photo" style="swimlane;fontStyle=0;childLayout=stackLayout;horizontal=1;startSize=26;fillColor=none;horizontalStack=0;resizeParent=1;resizeParentMax=0;resizeLast=0;collapsible=1;marginBottom=0;whiteSpace=wrap;html=1;" vertex="1" parent="1">
          <mxGeometry x="160" y="130" width="140" height="104" as="geometry">
            <mxRectangle x="160" y="180" width="70" height="30" as="alternateBounds" />
          </mxGeometry>
        </mxCell>
        <mxCell id="WyekG411s1SadjiJ9X-_-2" value="- id: Integer" style="text;strokeColor=none;fillColor=none;align=left;verticalAlign=top;spacingLeft=4;spacingRight=4;overflow=hidden;rotatable=0;points=[[0,0.5],[1,0.5]];portConstraint=eastwest;whiteSpace=wrap;html=1;" vertex="1" parent="WyekG411s1SadjiJ9X-_-1">
          <mxGeometry y="26" width="140" height="26" as="geometry" />
        </mxCell>
        <mxCell id="WyekG411s1SadjiJ9X-_-3" value="- path: String" style="text;strokeColor=none;fillColor=none;align=left;verticalAlign=top;spacingLeft=4;spacingRight=4;overflow=hidden;rotatable=0;points=[[0,0.5],[1,0.5]];portConstraint=eastwest;whiteSpace=wrap;html=1;" vertex="1" parent="WyekG411s1SadjiJ9X-_-1">
          <mxGeometry y="52" width="140" height="26" as="geometry" />
        </mxCell>
        <mxCell id="WyekG411s1SadjiJ9X-_-24" value="- destinationId: Integer" style="text;strokeColor=none;fillColor=none;align=left;verticalAlign=top;spacingLeft=4;spacingRight=4;overflow=hidden;rotatable=0;points=[[0,0.5],[1,0.5]];portConstraint=eastwest;whiteSpace=wrap;html=1;" vertex="1" parent="WyekG411s1SadjiJ9X-_-1">
          <mxGeometry y="78" width="140" height="26" as="geometry" />
        </mxCell>
        <mxCell id="WyekG411s1SadjiJ9X-_-5" value="User" style="swimlane;fontStyle=0;childLayout=stackLayout;horizontal=1;startSize=26;fillColor=none;horizontalStack=0;resizeParent=1;resizeParentMax=0;resizeLast=0;collapsible=1;marginBottom=0;whiteSpace=wrap;html=1;" vertex="1" parent="1">
          <mxGeometry x="160" y="320" width="140" height="182" as="geometry">
            <mxRectangle x="160" y="180" width="70" height="30" as="alternateBounds" />
          </mxGeometry>
        </mxCell>
        <mxCell id="WyekG411s1SadjiJ9X-_-6" value="- id: Integer" style="text;strokeColor=none;fillColor=none;align=left;verticalAlign=top;spacingLeft=4;spacingRight=4;overflow=hidden;rotatable=0;points=[[0,0.5],[1,0.5]];portConstraint=eastwest;whiteSpace=wrap;html=1;" vertex="1" parent="WyekG411s1SadjiJ9X-_-5">
          <mxGeometry y="26" width="140" height="26" as="geometry" />
        </mxCell>
        <mxCell id="WyekG411s1SadjiJ9X-_-9" value="- username: String" style="text;strokeColor=none;fillColor=none;align=left;verticalAlign=top;spacingLeft=4;spacingRight=4;overflow=hidden;rotatable=0;points=[[0,0.5],[1,0.5]];portConstraint=eastwest;whiteSpace=wrap;html=1;" vertex="1" parent="WyekG411s1SadjiJ9X-_-5">
          <mxGeometry y="52" width="140" height="26" as="geometry" />
        </mxCell>
        <mxCell id="WyekG411s1SadjiJ9X-_-10" value="- password: String" style="text;strokeColor=none;fillColor=none;align=left;verticalAlign=top;spacingLeft=4;spacingRight=4;overflow=hidden;rotatable=0;points=[[0,0.5],[1,0.5]];portConstraint=eastwest;whiteSpace=wrap;html=1;" vertex="1" parent="WyekG411s1SadjiJ9X-_-5">
          <mxGeometry y="78" width="140" height="26" as="geometry" />
        </mxCell>
        <mxCell id="WyekG411s1SadjiJ9X-_-7" value="- email: String" style="text;strokeColor=none;fillColor=none;align=left;verticalAlign=top;spacingLeft=4;spacingRight=4;overflow=hidden;rotatable=0;points=[[0,0.5],[1,0.5]];portConstraint=eastwest;whiteSpace=wrap;html=1;" vertex="1" parent="WyekG411s1SadjiJ9X-_-5">
          <mxGeometry y="104" width="140" height="26" as="geometry" />
        </mxCell>
        <mxCell id="WyekG411s1SadjiJ9X-_-11" value="- fullName: String" style="text;strokeColor=none;fillColor=none;align=left;verticalAlign=top;spacingLeft=4;spacingRight=4;overflow=hidden;rotatable=0;points=[[0,0.5],[1,0.5]];portConstraint=eastwest;whiteSpace=wrap;html=1;" vertex="1" parent="WyekG411s1SadjiJ9X-_-5">
          <mxGeometry y="130" width="140" height="26" as="geometry" />
        </mxCell>
        <mxCell id="WyekG411s1SadjiJ9X-_-12" value="- role: Integer" style="text;strokeColor=none;fillColor=none;align=left;verticalAlign=top;spacingLeft=4;spacingRight=4;overflow=hidden;rotatable=0;points=[[0,0.5],[1,0.5]];portConstraint=eastwest;whiteSpace=wrap;html=1;" vertex="1" parent="WyekG411s1SadjiJ9X-_-5">
          <mxGeometry y="156" width="140" height="26" as="geometry" />
        </mxCell>
        <mxCell id="WyekG411s1SadjiJ9X-_-13" value="&lt;i&gt;Destination&lt;/i&gt;" style="swimlane;fontStyle=0;childLayout=stackLayout;horizontal=1;startSize=26;fillColor=none;horizontalStack=0;resizeParent=1;resizeParentMax=0;resizeLast=0;collapsible=1;marginBottom=0;whiteSpace=wrap;html=1;" vertex="1" parent="1">
          <mxGeometry x="510" y="176" width="140" height="182" as="geometry">
            <mxRectangle x="500" y="200" width="70" height="30" as="alternateBounds" />
          </mxGeometry>
        </mxCell>
        <mxCell id="WyekG411s1SadjiJ9X-_-14" value="- id: Integer" style="text;strokeColor=none;fillColor=none;align=left;verticalAlign=top;spacingLeft=4;spacingRight=4;overflow=hidden;rotatable=0;points=[[0,0.5],[1,0.5]];portConstraint=eastwest;whiteSpace=wrap;html=1;" vertex="1" parent="WyekG411s1SadjiJ9X-_-13">
          <mxGeometry y="26" width="140" height="26" as="geometry" />
        </mxCell>
        <mxCell id="WyekG411s1SadjiJ9X-_-15" value="- location: String" style="text;strokeColor=none;fillColor=none;align=left;verticalAlign=top;spacingLeft=4;spacingRight=4;overflow=hidden;rotatable=0;points=[[0,0.5],[1,0.5]];portConstraint=eastwest;whiteSpace=wrap;html=1;" vertex="1" parent="WyekG411s1SadjiJ9X-_-13">
          <mxGeometry y="52" width="140" height="26" as="geometry" />
        </mxCell>
        <mxCell id="WyekG411s1SadjiJ9X-_-16" value="- description: String" style="text;strokeColor=none;fillColor=none;align=left;verticalAlign=top;spacingLeft=4;spacingRight=4;overflow=hidden;rotatable=0;points=[[0,0.5],[1,0.5]];portConstraint=eastwest;whiteSpace=wrap;html=1;" vertex="1" parent="WyekG411s1SadjiJ9X-_-13">
          <mxGeometry y="78" width="140" height="26" as="geometry" />
        </mxCell>
        <mxCell id="WyekG411s1SadjiJ9X-_-17" value="- category: String" style="text;strokeColor=none;fillColor=none;align=left;verticalAlign=top;spacingLeft=4;spacingRight=4;overflow=hidden;rotatable=0;points=[[0,0.5],[1,0.5]];portConstraint=eastwest;whiteSpace=wrap;html=1;" vertex="1" parent="WyekG411s1SadjiJ9X-_-13">
          <mxGeometry y="104" width="140" height="26" as="geometry" />
        </mxCell>
        <mxCell id="WyekG411s1SadjiJ9X-_-18" value="- rules: String" style="text;strokeColor=none;fillColor=none;align=left;verticalAlign=top;spacingLeft=4;spacingRight=4;overflow=hidden;rotatable=0;points=[[0,0.5],[1,0.5]];portConstraint=eastwest;whiteSpace=wrap;html=1;" vertex="1" parent="WyekG411s1SadjiJ9X-_-13">
          <mxGeometry y="130" width="140" height="26" as="geometry" />
        </mxCell>
        <mxCell id="WyekG411s1SadjiJ9X-_-19" value="- ownerId: integer" style="text;strokeColor=none;fillColor=none;align=left;verticalAlign=top;spacingLeft=4;spacingRight=4;overflow=hidden;rotatable=0;points=[[0,0.5],[1,0.5]];portConstraint=eastwest;whiteSpace=wrap;html=1;" vertex="1" parent="WyekG411s1SadjiJ9X-_-13">
          <mxGeometry y="156" width="140" height="26" as="geometry" />
        </mxCell>
        <mxCell id="WyekG411s1SadjiJ9X-_-20" value="" style="endArrow=none;html=1;rounded=0;" edge="1" parent="1" source="WyekG411s1SadjiJ9X-_-6" target="WyekG411s1SadjiJ9X-_-19">
          <mxGeometry relative="1" as="geometry">
            <mxPoint x="370" y="480" as="sourcePoint" />
            <mxPoint x="490" y="410" as="targetPoint" />
          </mxGeometry>
        </mxCell>
        <mxCell id="WyekG411s1SadjiJ9X-_-21" value="1" style="resizable=0;html=1;whiteSpace=wrap;align=left;verticalAlign=bottom;" connectable="0" vertex="1" parent="WyekG411s1SadjiJ9X-_-20">
          <mxGeometry x="-1" relative="1" as="geometry" />
        </mxCell>
        <mxCell id="WyekG411s1SadjiJ9X-_-22" value="0..*" style="resizable=0;html=1;whiteSpace=wrap;align=right;verticalAlign=bottom;" connectable="0" vertex="1" parent="WyekG411s1SadjiJ9X-_-20">
          <mxGeometry x="1" relative="1" as="geometry" />
        </mxCell>
        <mxCell id="WyekG411s1SadjiJ9X-_-28" value="" style="endArrow=none;html=1;rounded=0;" edge="1" parent="1" source="WyekG411s1SadjiJ9X-_-24" target="WyekG411s1SadjiJ9X-_-14">
          <mxGeometry relative="1" as="geometry">
            <mxPoint x="340" y="120" as="sourcePoint" />
            <mxPoint x="540" y="130" as="targetPoint" />
          </mxGeometry>
        </mxCell>
        <mxCell id="WyekG411s1SadjiJ9X-_-29" value="0..*" style="resizable=0;html=1;whiteSpace=wrap;align=left;verticalAlign=bottom;" connectable="0" vertex="1" parent="WyekG411s1SadjiJ9X-_-28">
          <mxGeometry x="-1" relative="1" as="geometry" />
        </mxCell>
        <mxCell id="WyekG411s1SadjiJ9X-_-30" value="1" style="resizable=0;html=1;whiteSpace=wrap;align=right;verticalAlign=bottom;" connectable="0" vertex="1" parent="WyekG411s1SadjiJ9X-_-28">
          <mxGeometry x="1" relative="1" as="geometry" />
        </mxCell>
        <mxCell id="WyekG411s1SadjiJ9X-_-31" value="Private" style="swimlane;fontStyle=0;childLayout=stackLayout;horizontal=1;startSize=26;fillColor=none;horizontalStack=0;resizeParent=1;resizeParentMax=0;resizeLast=0;collapsible=1;marginBottom=0;whiteSpace=wrap;html=1;" vertex="1" parent="1">
          <mxGeometry x="495" y="580" width="140" height="52" as="geometry" />
        </mxCell>
        <mxCell id="WyekG411s1SadjiJ9X-_-35" value="Public" style="swimlane;fontStyle=0;childLayout=stackLayout;horizontal=1;startSize=26;fillColor=none;horizontalStack=0;resizeParent=1;resizeParentMax=0;resizeLast=0;collapsible=1;marginBottom=0;whiteSpace=wrap;html=1;" vertex="1" parent="1">
          <mxGeometry x="720" y="528" width="140" height="52" as="geometry" />
        </mxCell>
        <mxCell id="WyekG411s1SadjiJ9X-_-36" value="" style="endArrow=block;endSize=16;endFill=0;html=1;rounded=0;" edge="1" parent="1" source="WyekG411s1SadjiJ9X-_-31" target="WyekG411s1SadjiJ9X-_-13">
          <mxGeometry width="160" relative="1" as="geometry">
            <mxPoint x="390" y="660" as="sourcePoint" />
            <mxPoint x="550" y="660" as="targetPoint" />
          </mxGeometry>
        </mxCell>
        <mxCell id="WyekG411s1SadjiJ9X-_-37" value="" style="endArrow=block;endSize=16;endFill=0;html=1;rounded=0;" edge="1" parent="1" source="WyekG411s1SadjiJ9X-_-35" target="WyekG411s1SadjiJ9X-_-13">
          <mxGeometry width="160" relative="1" as="geometry">
            <mxPoint x="650" y="420" as="sourcePoint" />
            <mxPoint x="525" y="382" as="targetPoint" />
          </mxGeometry>
        </mxCell>
        <mxCell id="WyekG411s1SadjiJ9X-_-38" value="PrivateDestinationList" style="swimlane;fontStyle=1;align=center;verticalAlign=top;childLayout=stackLayout;horizontal=1;startSize=26;horizontalStack=0;resizeParent=1;resizeParentMax=0;resizeLast=0;collapsible=1;marginBottom=0;whiteSpace=wrap;html=1;" vertex="1" parent="1">
          <mxGeometry x="880" y="220" width="240" height="138" as="geometry" />
        </mxCell>
        <mxCell id="WyekG411s1SadjiJ9X-_-39" value="- stayDates: List&amp;lt;Tuple(Date, Date)&amp;gt;" style="text;strokeColor=none;fillColor=none;align=left;verticalAlign=top;spacingLeft=4;spacingRight=4;overflow=hidden;rotatable=0;points=[[0,0.5],[1,0.5]];portConstraint=eastwest;whiteSpace=wrap;html=1;" vertex="1" parent="WyekG411s1SadjiJ9X-_-38">
          <mxGeometry y="26" width="240" height="26" as="geometry" />
        </mxCell>
        <mxCell id="WyekG411s1SadjiJ9X-_-42" value="- ratings: List&amp;lt;Enum&amp;gt;" style="text;strokeColor=none;fillColor=none;align=left;verticalAlign=top;spacingLeft=4;spacingRight=4;overflow=hidden;rotatable=0;points=[[0,0.5],[1,0.5]];portConstraint=eastwest;whiteSpace=wrap;html=1;" vertex="1" parent="WyekG411s1SadjiJ9X-_-38">
          <mxGeometry y="52" width="240" height="26" as="geometry" />
        </mxCell>
        <mxCell id="WyekG411s1SadjiJ9X-_-40" value="" style="line;strokeWidth=1;fillColor=none;align=left;verticalAlign=middle;spacingTop=-1;spacingLeft=3;spacingRight=3;rotatable=0;labelPosition=right;points=[];portConstraint=eastwest;strokeColor=inherit;" vertex="1" parent="WyekG411s1SadjiJ9X-_-38">
          <mxGeometry y="78" width="240" height="8" as="geometry" />
        </mxCell>
        <mxCell id="WyekG411s1SadjiJ9X-_-41" value="+ addDestination(destId: String): void" style="text;strokeColor=none;fillColor=none;align=left;verticalAlign=top;spacingLeft=4;spacingRight=4;overflow=hidden;rotatable=0;points=[[0,0.5],[1,0.5]];portConstraint=eastwest;whiteSpace=wrap;html=1;" vertex="1" parent="WyekG411s1SadjiJ9X-_-38">
          <mxGeometry y="86" width="240" height="26" as="geometry" />
        </mxCell>
        <mxCell id="WyekG411s1SadjiJ9X-_-43" value="+ removeDestination(destId: String): void" style="text;strokeColor=none;fillColor=none;align=left;verticalAlign=top;spacingLeft=4;spacingRight=4;overflow=hidden;rotatable=0;points=[[0,0.5],[1,0.5]];portConstraint=eastwest;whiteSpace=wrap;html=1;" vertex="1" parent="WyekG411s1SadjiJ9X-_-38">
          <mxGeometry y="112" width="240" height="26" as="geometry" />
        </mxCell>
        <mxCell id="WyekG411s1SadjiJ9X-_-44" value="" style="endArrow=none;html=1;rounded=0;" edge="1" parent="1" source="WyekG411s1SadjiJ9X-_-14" target="WyekG411s1SadjiJ9X-_-38">
          <mxGeometry relative="1" as="geometry">
            <mxPoint x="700" y="168" as="sourcePoint" />
            <mxPoint x="900" y="150" as="targetPoint" />
          </mxGeometry>
        </mxCell>
        <mxCell id="WyekG411s1SadjiJ9X-_-45" value="0..*" style="resizable=0;html=1;whiteSpace=wrap;align=left;verticalAlign=bottom;" connectable="0" vertex="1" parent="WyekG411s1SadjiJ9X-_-44">
          <mxGeometry x="-1" relative="1" as="geometry" />
        </mxCell>
        <mxCell id="WyekG411s1SadjiJ9X-_-46" value="0..*" style="resizable=0;html=1;whiteSpace=wrap;align=right;verticalAlign=bottom;" connectable="0" vertex="1" parent="WyekG411s1SadjiJ9X-_-44">
          <mxGeometry x="1" relative="1" as="geometry" />
        </mxCell>
        <mxCell id="3XsMM1yKGNhTZbwVRHEC-2" value="photos" style="text;html=1;align=center;verticalAlign=middle;resizable=0;points=[];autosize=1;strokeColor=none;fillColor=none;" vertex="1" parent="1">
          <mxGeometry x="280" y="230" width="60" height="30" as="geometry" />
        </mxCell>
        <mxCell id="3XsMM1yKGNhTZbwVRHEC-3" value="destination" style="text;html=1;align=center;verticalAlign=middle;resizable=0;points=[];autosize=1;strokeColor=none;fillColor=none;" vertex="1" parent="1">
          <mxGeometry x="440" y="220" width="80" height="30" as="geometry" />
        </mxCell>
        <mxCell id="3XsMM1yKGNhTZbwVRHEC-4" value="destinations" style="text;html=1;align=center;verticalAlign=middle;resizable=0;points=[];autosize=1;strokeColor=none;fillColor=none;" vertex="1" parent="1">
          <mxGeometry x="635" y="238" width="90" height="30" as="geometry" />
        </mxCell>
        <mxCell id="3XsMM1yKGNhTZbwVRHEC-5" value="pdl" style="text;html=1;align=center;verticalAlign=middle;resizable=0;points=[];autosize=1;strokeColor=none;fillColor=none;" vertex="1" parent="1">
          <mxGeometry x="840" y="260" width="40" height="30" as="geometry" />
        </mxCell>
        <mxCell id="3XsMM1yKGNhTZbwVRHEC-7" value="user" style="text;html=1;align=center;verticalAlign=middle;resizable=0;points=[];autosize=1;strokeColor=none;fillColor=none;" vertex="1" parent="1">
          <mxGeometry x="300" y="358" width="50" height="30" as="geometry" />
        </mxCell>
        <mxCell id="3XsMM1yKGNhTZbwVRHEC-8" value="role_destinations" style="text;html=1;align=center;verticalAlign=middle;resizable=0;points=[];autosize=1;strokeColor=none;fillColor=none;" vertex="1" parent="1">
          <mxGeometry x="430" y="358" width="110" height="30" as="geometry" />
        </mxCell>
        <mxCell id="3XsMM1yKGNhTZbwVRHEC-9" value="bidirectional one to many relationship" style="text;html=1;align=center;verticalAlign=middle;resizable=0;points=[];autosize=1;strokeColor=none;fillColor=none;" vertex="1" parent="1">
          <mxGeometry x="310" y="138" width="220" height="30" as="geometry" />
        </mxCell>
        <mxCell id="3XsMM1yKGNhTZbwVRHEC-10" value="bidirectional one to many relationship" style="text;html=1;align=center;verticalAlign=middle;resizable=0;points=[];autosize=1;strokeColor=none;fillColor=none;" vertex="1" parent="1">
          <mxGeometry x="310" y="396" width="220" height="30" as="geometry" />
        </mxCell>
        <mxCell id="3XsMM1yKGNhTZbwVRHEC-11" value="bidirectional many to many relationship" style="text;html=1;align=center;verticalAlign=middle;resizable=0;points=[];autosize=1;strokeColor=none;fillColor=none;" vertex="1" parent="1">
          <mxGeometry x="665" y="160" width="230" height="30" as="geometry" />
        </mxCell>
        <mxCell id="3XsMM1yKGNhTZbwVRHEC-12" value="generalization" style="text;html=1;align=center;verticalAlign=middle;resizable=0;points=[];autosize=1;strokeColor=none;fillColor=none;rotation=-15;" vertex="1" parent="1">
          <mxGeometry x="520" y="460" width="100" height="30" as="geometry" />
        </mxCell>
        <mxCell id="3XsMM1yKGNhTZbwVRHEC-13" value="generalization" style="text;html=1;align=center;verticalAlign=middle;resizable=0;points=[];autosize=1;strokeColor=none;fillColor=none;rotation=-15;" vertex="1" parent="1">
          <mxGeometry x="670" y="420" width="100" height="30" as="geometry" />
        </mxCell>
        <mxCell id="3XsMM1yKGNhTZbwVRHEC-15" value="Date" style="swimlane;fontStyle=1;align=center;verticalAlign=top;childLayout=stackLayout;horizontal=1;startSize=26;horizontalStack=0;resizeParent=1;resizeParentMax=0;resizeLast=0;collapsible=1;marginBottom=0;whiteSpace=wrap;html=1;" vertex="1" parent="1">
          <mxGeometry x="940" y="470" width="150" height="106" as="geometry" />
        </mxCell>
        <mxCell id="3XsMM1yKGNhTZbwVRHEC-16" value="- day: integer" style="text;strokeColor=none;fillColor=none;align=left;verticalAlign=top;spacingLeft=4;spacingRight=4;overflow=hidden;rotatable=0;points=[[0,0.5],[1,0.5]];portConstraint=eastwest;whiteSpace=wrap;html=1;" vertex="1" parent="3XsMM1yKGNhTZbwVRHEC-15">
          <mxGeometry y="26" width="150" height="26" as="geometry" />
        </mxCell>
        <mxCell id="3XsMM1yKGNhTZbwVRHEC-17" value="- month: integer" style="text;strokeColor=none;fillColor=none;align=left;verticalAlign=top;spacingLeft=4;spacingRight=4;overflow=hidden;rotatable=0;points=[[0,0.5],[1,0.5]];portConstraint=eastwest;whiteSpace=wrap;html=1;" vertex="1" parent="3XsMM1yKGNhTZbwVRHEC-15">
          <mxGeometry y="52" width="150" height="28" as="geometry" />
        </mxCell>
        <mxCell id="3XsMM1yKGNhTZbwVRHEC-21" value="- year: integer" style="text;strokeColor=none;fillColor=none;align=left;verticalAlign=top;spacingLeft=4;spacingRight=4;overflow=hidden;rotatable=0;points=[[0,0.5],[1,0.5]];portConstraint=eastwest;whiteSpace=wrap;html=1;" vertex="1" parent="3XsMM1yKGNhTZbwVRHEC-15">
          <mxGeometry y="80" width="150" height="26" as="geometry" />
        </mxCell>
        <mxCell id="pMz58L8SJ9AJ60i3XiqX-1" value="Enum" style="swimlane;fontStyle=1;align=center;verticalAlign=top;childLayout=stackLayout;horizontal=1;startSize=26;horizontalStack=0;resizeParent=1;resizeParentMax=0;resizeLast=0;collapsible=1;marginBottom=0;whiteSpace=wrap;html=1;" vertex="1" parent="1">
          <mxGeometry x="1170" y="430" width="135" height="116" as="geometry" />
        </mxCell>
        <mxCell id="pMz58L8SJ9AJ60i3XiqX-5" value="1 &lt;br&gt;2 &lt;br&gt;3&lt;br&gt;&amp;nbsp;4&lt;br&gt;&amp;nbsp;5&amp;nbsp;" style="text;html=1;align=center;verticalAlign=middle;resizable=0;points=[];autosize=1;strokeColor=none;fillColor=none;" vertex="1" parent="pMz58L8SJ9AJ60i3XiqX-1">
          <mxGeometry y="26" width="135" height="90" as="geometry" />
        </mxCell>
      </root>
    </mxGraphModel>
  </diagram>
</mxfile>
